<svg width="774" height="1876" viewBox="0 0 774 1876" fill="none" xmlns="http://www.w3.org/2000/svg">
<g opacity="0.47" filter="url(#filter0_f_89_1322)">
<path d="M633.062 751C647.461 857.1 736.767 856.118 779.621 842.364C821.617 821.733 911.781 768.094 936.464 718.581C967.319 656.689 931.322 500.486 879.898 482.803C828.474 465.119 818.189 344.283 797.619 244.078C777.049 143.872 586.78 241.13 527.643 303.022C468.505 364.914 527.643 473.961 568.782 547.642C609.921 621.322 615.064 618.375 633.062 751Z" fill="#205EE5"/>
<path d="M505.967 1104.29C521.394 1007.03 647.383 1015.87 665.381 1015.87C677.38 1020.78 701.378 1040.04 701.378 1077.76C701.378 1124.92 698.807 1186.81 701.378 1233.97C703.95 1281.12 788.799 1260.49 817.083 1348.91C845.366 1437.32 814.511 1549.32 817.083 1625.95C819.654 1702.57 729.662 1670.15 665.381 1658.37C601.101 1646.58 611.386 1502.16 629.385 1425.53C647.383 1348.91 631.956 1334.17 567.676 1301.75C503.396 1269.33 490.54 1201.55 505.967 1104.29Z" fill="#205EE5"/>
<path d="M490.853 350.491C445.011 354.804 429.742 407.906 427.837 433.917C424.142 455.437 387.126 464.727 326.009 465.188C264.892 465.65 255.413 584.506 210.935 656.138C166.458 727.769 279.212 845.703 317.31 849.259C355.409 852.815 395.277 807.009 391.9 747.022C388.523 687.035 519.538 689.518 567.393 677.873C615.247 666.228 614.564 492.52 595.75 400.66C576.935 308.799 548.155 345.098 490.853 350.491Z" fill="#205EE5"/>
</g>
<defs>
<filter id="filter0_f_89_1322" x="0.711914" y="0.878906" width="1147.17" height="1874.43" filterUnits="userSpaceOnUse" color-interpolation-filters="sRGB">
<feFlood flood-opacity="0" result="BackgroundImageFix"/>
<feBlend mode="normal" in="SourceGraphic" in2="BackgroundImageFix" result="shape"/>
<feGaussianBlur stdDeviation="100" result="effect1_foregroundBlur_89_1322"/>
</filter>
</defs>
</svg>
