<svg width="339" height="319" viewBox="0 0 339 319" fill="none" xmlns="http://www.w3.org/2000/svg">
<g opacity="0.57" filter="url(#filter0_f_108_5287)">
<path d="M67.9933 158.138C111.843 148.907 111.437 91.6505 105.753 64.1763C97.2265 37.2515 75.058 -20.5543 54.5947 -36.3795C29.0156 -56.161 -35.5411 -33.0826 -42.8494 -0.113501C-50.1577 32.8556 -100.098 39.4494 -141.511 52.637C-182.925 65.8246 -142.73 187.81 -117.15 225.725C-91.5714 263.639 -46.5035 225.725 -16.0522 199.349C14.399 172.974 13.181 169.677 67.9933 158.138Z" fill="#205EE5"/>
<path d="M214.003 239.621C175.076 230.042 177.274 153.985 177.452 138.712C177.462 137.851 177.562 136.997 177.82 136.176C180.327 128.187 188.248 114.338 203.04 114.338C222.529 114.338 248.108 115.987 267.597 114.338C287.086 112.69 278.559 58.2908 315.101 40.1578C351.642 22.0248 397.928 41.8063 429.598 40.1578C461.267 38.5094 447.868 96.2053 442.996 137.417C438.124 178.628 378.44 172.034 346.77 160.495C315.101 148.956 309.011 158.847 295.612 200.058C282.213 241.269 254.198 249.511 214.003 239.621Z" fill="#153F9A"/>
<path d="M-97.5319 249.311C-95.7491 278.701 -73.8029 288.491 -63.0527 289.712C-54.1588 292.081 -50.3195 315.813 -50.1287 354.997C-49.938 394.18 -0.816146 400.257 28.7883 428.773C58.3927 457.288 107.133 384.999 108.603 360.573C110.073 336.148 91.1414 310.588 66.3496 312.752C41.5578 314.917 42.5838 230.921 37.7712 200.24C32.9586 169.56 -38.8329 169.997 -76.7977 182.06C-114.762 194.122 -99.7605 212.574 -97.5319 249.311Z" fill="#153F9A"/>
</g>
<defs>
<filter id="filter0_f_108_5287" x="-359.365" y="-243.698" width="1009.37" height="879.026" filterUnits="userSpaceOnUse" color-interpolation-filters="sRGB">
<feFlood flood-opacity="0" result="BackgroundImageFix"/>
<feBlend mode="normal" in="SourceGraphic" in2="BackgroundImageFix" result="shape"/>
<feGaussianBlur stdDeviation="100" result="effect1_foregroundBlur_108_5287"/>
</filter>
</defs>
</svg>
