<svg width="1314" height="441" viewBox="0 0 1314 441" fill="none" xmlns="http://www.w3.org/2000/svg">
<g opacity="0.57" filter="url(#filter0_f_108_4595)">
<path d="M264.114 218.784C432.565 206.106 432.28 127.972 410.756 89.6353C410.429 89.0527 410.063 88.5448 409.619 88.0459C376.154 50.4878 290.947 -28.6053 212.254 -50.3602C113.249 -77.7308 -136.622 -45.7985 -164.909 -0.180868C-193.196 45.4367 -386.492 54.5602 -546.787 72.8073C-707.081 91.0543 -551.501 259.839 -452.496 312.3C-353.491 364.76 -179.053 312.3 -61.1891 275.806C56.6744 239.312 51.9598 234.75 264.114 218.784Z" fill="#205EE5"/>
<path d="M687.703 193.913L687.724 193.345C687.806 191.209 688.459 189.166 689.92 187.605C700.358 176.454 730.908 158.18 786.818 158.18C862.251 158.18 961.256 160.461 1036.69 158.18C1112.12 155.899 1079.12 80.63 1220.56 55.5403C1361.99 30.4507 1541.14 57.8212 1663.72 55.5404C1786.3 53.2595 1734.44 133.09 1715.58 190.112C1696.72 247.134 1465.71 238.011 1343.13 222.045C1220.56 206.078 1196.98 219.764 1145.12 276.786C1093.26 333.808 984.829 345.212 829.249 331.527C682.877 318.651 686.733 218.963 687.703 193.913Z" fill="#153F9A"/>
<path d="M-376.566 344.935C-369.665 385.601 -284.721 399.146 -243.112 400.836C-208.688 404.114 -193.827 436.951 -193.089 491.166C-192.351 545.382 -2.22181 553.791 112.364 593.247C226.95 632.702 415.603 532.679 421.291 498.883C426.98 465.086 353.706 429.72 257.747 432.715C161.789 435.711 165.76 319.489 147.133 277.038C128.505 234.587 -149.368 235.193 -296.313 251.883C-443.258 268.573 -385.192 294.104 -376.566 344.935Z" fill="#153F9A"/>
</g>
<defs>
<filter id="filter0_f_108_4595" x="-815.89" y="-260.487" width="2758.58" height="1062.8" filterUnits="userSpaceOnUse" color-interpolation-filters="sRGB">
<feFlood flood-opacity="0" result="BackgroundImageFix"/>
<feBlend mode="normal" in="SourceGraphic" in2="BackgroundImageFix" result="shape"/>
<feGaussianBlur stdDeviation="100" result="effect1_foregroundBlur_108_4595"/>
</filter>
</defs>
</svg>
