<svg width="633" height="326" viewBox="0 0 633 326" fill="none" xmlns="http://www.w3.org/2000/svg">
<g opacity="0.65" filter="url(#filter0_f_108_4287)">
<path d="M163.26 142.061C240.375 131.03 239.661 62.6102 229.665 29.7794C214.67 -2.39488 175.684 -71.471 139.697 -90.3816C94.7136 -114.02 -18.8169 -86.4419 -31.6694 -47.0449C-44.522 -7.64784 -132.347 0.231566 -205.178 15.9904C-278.009 31.7492 -207.32 177.518 -162.337 222.825C-117.353 268.131 -38.0957 222.825 15.4564 191.307C69.0086 159.79 66.8665 155.85 163.26 142.061Z" fill="#205EE5"/>
<path d="M420.035 239.431C351.938 228.045 355.405 138.053 355.751 119.142C355.774 117.904 355.985 116.703 356.514 115.583C361.041 106.003 374.955 89.7223 400.757 89.7223C435.03 89.7223 480.014 91.6921 514.287 89.7223C548.561 87.7524 533.566 22.7473 597.828 1.07897C662.091 -20.5894 743.49 3.04884 799.185 1.07899C854.879 -0.890852 831.316 68.0539 822.747 117.3C814.179 166.547 709.217 158.667 653.523 144.878C597.828 131.089 587.118 142.908 563.555 192.155C539.992 241.401 490.724 251.25 420.035 239.431Z" fill="#153F9A"/>
<path d="M-127.835 251.01C-124.7 286.131 -86.1051 297.829 -67.1996 299.288C-51.5587 302.119 -44.8068 330.478 -44.4714 377.301C-44.136 424.123 42.2506 431.386 94.3135 465.461C146.376 499.536 232.092 413.153 234.677 383.965C237.261 354.777 203.969 324.233 160.369 326.82C116.77 329.407 118.574 229.034 110.111 192.372C101.647 155.709 -24.6064 156.233 -91.3719 170.647C-158.137 185.061 -131.755 207.11 -127.835 251.01Z" fill="#153F9A"/>
</g>
<defs>
<filter id="filter0_f_108_4287" x="-436.576" y="-299.127" width="1471.64" height="972.421" filterUnits="userSpaceOnUse" color-interpolation-filters="sRGB">
<feFlood flood-opacity="0" result="BackgroundImageFix"/>
<feBlend mode="normal" in="SourceGraphic" in2="BackgroundImageFix" result="shape"/>
<feGaussianBlur stdDeviation="100" result="effect1_foregroundBlur_108_4287"/>
</filter>
</defs>
</svg>
