<svg width="632" height="326" viewBox="0 0 632 326" fill="none" xmlns="http://www.w3.org/2000/svg">
<g opacity="0.65" filter="url(#filter0_f_108_4311)">
<path d="M434.575 276.571C357.46 287.602 358.174 356.022 368.17 388.852C383.165 421.027 422.151 490.103 458.138 509.013C503.121 532.652 616.652 505.074 629.504 465.677C642.357 426.28 730.182 418.4 803.013 402.641C875.844 386.883 805.155 241.114 760.172 195.807C715.188 150.5 635.931 195.807 582.379 227.325C528.826 258.842 530.968 262.782 434.575 276.571Z" fill="#205EE5"/>
<path d="M177.8 179.201C245.897 190.587 242.43 280.579 242.084 299.49C242.061 300.728 241.85 301.929 241.321 303.049C236.794 312.629 222.88 328.91 197.078 328.91C162.805 328.91 117.821 326.94 83.5478 328.91C49.2744 330.879 64.269 395.884 0.00648499 417.553C-64.2561 439.221 -145.655 415.583 -201.35 417.553C-257.044 419.523 -233.481 350.578 -224.913 301.332C-216.344 252.085 -111.382 259.965 -55.6877 273.754C0.00648499 287.543 10.7169 275.724 34.2798 226.477C57.8428 177.231 107.111 167.382 177.8 179.201Z" fill="#153F9A"/>
<path d="M725.67 167.621C722.535 132.501 683.94 120.803 665.035 119.344C649.394 116.513 642.642 88.1537 642.306 41.331C641.971 -5.49177 555.584 -12.754 503.521 -46.8292C451.459 -80.9043 365.743 5.47889 363.158 34.667C360.573 63.855 393.866 94.3984 437.466 91.8114C481.065 89.2243 479.26 189.598 487.724 226.26C496.187 262.922 622.441 262.399 689.207 247.985C755.972 233.571 729.59 211.521 725.67 167.621Z" fill="#153F9A"/>
</g>
<defs>
<filter id="filter0_f_108_4311" x="-437.229" y="-254.662" width="1471.64" height="972.421" filterUnits="userSpaceOnUse" color-interpolation-filters="sRGB">
<feFlood flood-opacity="0" result="BackgroundImageFix"/>
<feBlend mode="normal" in="SourceGraphic" in2="BackgroundImageFix" result="shape"/>
<feGaussianBlur stdDeviation="100" result="effect1_foregroundBlur_108_4311"/>
</filter>
</defs>
</svg>
