<svg width="649" height="1482" viewBox="0 0 649 1482" fill="none" xmlns="http://www.w3.org/2000/svg">
<g opacity="0.47" filter="url(#filter0_f_108_6153)">
<path d="M632.39 548.088C646.789 632.242 736.095 631.463 778.949 620.554C820.945 604.191 911.109 561.646 935.792 522.374C966.647 473.284 930.65 349.39 879.226 335.364C827.802 321.339 817.517 225.496 796.947 146.017C776.378 66.5378 586.109 143.679 526.971 192.769C467.833 241.859 526.971 328.351 568.11 386.792C609.249 445.233 614.392 442.895 632.39 548.088Z" fill="#205EE5"/>
<path d="M505.295 828.302C520.722 751.16 646.711 758.173 664.71 758.173C676.709 762.069 700.706 777.342 700.706 807.263C700.706 844.665 698.135 893.755 700.706 931.157C703.278 968.559 788.127 952.196 816.411 1022.32C844.694 1092.45 813.839 1181.28 816.411 1242.06C818.982 1302.84 728.99 1277.13 664.71 1267.77C600.429 1258.42 610.714 1143.88 628.713 1083.1C646.711 1022.32 631.284 1010.64 567.004 984.923C502.724 959.209 489.868 905.444 505.295 828.302Z" fill="#205EE5"/>
<path d="M490.181 230.42C444.339 233.841 429.07 275.959 427.166 296.59C423.47 313.659 386.454 321.027 325.337 321.393C264.22 321.759 254.741 416.032 210.263 472.847C165.786 529.662 278.54 623.203 316.639 626.023C354.737 628.844 394.605 592.512 391.228 544.933C387.851 497.353 518.866 499.323 566.721 490.087C614.575 480.85 613.892 343.072 595.078 270.212C576.263 197.352 547.483 226.143 490.181 230.42Z" fill="#205EE5"/>
</g>
<defs>
<filter id="filter0_f_108_6153" x="0.0390625" y="-88.2466" width="1147.17" height="1569.46" filterUnits="userSpaceOnUse" color-interpolation-filters="sRGB">
<feFlood flood-opacity="0" result="BackgroundImageFix"/>
<feBlend mode="normal" in="SourceGraphic" in2="BackgroundImageFix" result="shape"/>
<feGaussianBlur stdDeviation="100" result="effect1_foregroundBlur_108_6153"/>
</filter>
</defs>
</svg>
