<svg width="131" height="51" viewBox="0 0 131 51" fill="none" xmlns="http://www.w3.org/2000/svg">
<path d="M33.6549 11.6084C30.2291 13.8922 26.2052 15.0885 22.0182 15.0885C21.7463 15.0885 21.5288 15.0885 21.2569 15.0885C21.2569 15.4692 21.2025 15.7954 21.0938 16.1217C22.0182 15.9042 23.0513 15.7954 24.1389 15.7954C24.3564 15.7954 24.5195 15.7954 24.6826 15.7954H27.9453V16.883V18.623C30.7729 17.9705 33.5461 16.883 36.0475 15.306C35.4493 14.001 34.6337 12.7503 33.6549 11.6084Z" fill="white"/>
<path d="M15.9271 25.311C12.9908 25.9636 10.2175 27.1055 7.60742 28.7368C8.25995 30.0418 9.0756 31.2925 10.0544 32.3801C12.882 30.4769 16.0903 29.2806 19.4073 28.8455C17.7759 28.1386 16.5796 26.888 15.9271 25.311Z" fill="white"/>
<path d="M29.087 35.9149C26.9119 34.773 24.5193 34.1748 22.018 34.1748C19.4623 34.1748 16.9609 34.8273 14.7314 36.0236C16.9065 37.1112 19.3535 37.7093 21.8005 37.7093C24.3562 37.7093 26.8575 37.1112 29.087 35.9149Z" fill="white"/>
<path d="M28.9769 7.96499C26.8018 6.82307 24.3549 6.2793 21.8535 6.2793C19.4065 6.2793 17.014 6.87745 14.8389 7.96499C17.014 9.10691 19.4609 9.75943 21.9623 9.75943C24.3549 9.70506 26.8018 9.10691 28.9769 7.96499Z" fill="white"/>
<path d="M37.5694 21.9942C37.5694 19.9278 37.1344 17.9159 36.3731 16.0127C33.763 17.5896 30.9354 18.7316 27.999 19.3841V20.0366V20.4716H25.4977C25.4433 20.4716 25.3345 20.4716 25.2802 20.4716C24.5733 20.4716 22.235 20.6347 22.1807 22.7011C22.1807 23.1361 22.2894 23.4624 22.4525 23.7342C22.8332 24.4411 23.4857 24.7674 24.1382 24.8762V23.4624V21.0698H36.8625V26.0181C36.8625 26.0181 34.5243 26.0181 33.6542 26.0181C33.6542 26.1268 33.6542 26.29 33.6542 26.4531C34.5786 26.8881 35.5031 27.3775 36.4275 27.9213C37.1344 26.1268 37.5694 24.0605 37.5694 21.9942Z" fill="white"/>
<path d="M36.0466 28.6827C35.2309 28.1933 34.4153 27.7039 33.5996 27.3232C33.5996 28.6827 33.5996 30.6946 33.5996 32.2172C33.654 32.2172 33.7084 32.2716 33.7084 32.2716C34.6328 31.184 35.4484 29.9877 36.0466 28.6827Z" fill="white"/>
<path d="M33.1648 11.1192C32.1317 10.0317 30.9897 9.16167 29.6847 8.40039C27.2921 9.75982 24.6276 10.4667 21.9088 10.4667C19.1355 10.4667 16.4167 9.75982 14.0241 8.40039C13.2084 8.88978 12.4471 9.43356 11.7402 10.0317H15.9816C18.3742 10.0317 21.1475 11.1736 21.3106 14.4363C21.5825 14.4363 21.8 14.4363 22.0719 14.4363C26.0414 14.3819 29.8478 13.24 33.1648 11.1192Z" fill="white"/>
<path d="M15.4925 22.6467C15.4925 22.5924 15.4925 22.5924 15.4925 22.538C15.4925 21.5048 15.71 20.526 16.1994 19.656C16.145 19.656 16.0907 19.656 15.9819 19.656C15.9819 19.656 14.5681 19.656 13.7524 19.656C13.7524 20.526 13.7524 23.0274 13.7524 23.0274H7.49908V15.904C7.4447 15.904 7.4447 15.8496 7.39032 15.8496C6.57467 17.8072 6.13965 19.8735 6.13965 21.9942C6.13965 24.1149 6.57467 26.1813 7.39032 28.0845C10.0004 26.4531 12.828 25.3112 15.7644 24.6587C15.6013 24.0606 15.4925 23.408 15.4925 22.7555C15.4925 22.7011 15.4925 22.6467 15.4925 22.6467Z" fill="white"/>
<path d="M27.2921 30.803C27.2921 30.3136 27.2921 29.8786 27.2921 29.3892C26.4221 29.6067 25.4433 29.8242 24.1382 29.8242C23.5401 29.8242 22.9419 29.7698 22.3438 29.7154C21.9088 29.661 21.4737 29.5523 21.0931 29.4979C17.2867 29.661 13.6978 30.8573 10.5439 32.978C11.5771 34.0112 12.719 34.9356 14.0241 35.6969C16.4711 34.2831 19.1899 33.5218 22.0175 33.5218C24.7364 33.5218 27.4552 34.2287 29.7934 35.5882C30.3916 35.2619 30.9354 34.8269 31.4791 34.4462H27.2921C27.2921 34.3375 27.2921 32.6518 27.2921 30.803Z" fill="white"/>
<path d="M3.20326 16.5562C3.52952 16.665 3.91016 16.5018 4.01891 16.1212C4.12767 15.7949 3.96453 15.4143 3.63827 15.3055C3.31201 15.1968 2.93137 15.3599 2.82262 15.6862C2.71386 16.0668 2.87699 16.3931 3.20326 16.5562Z" fill="white"/>
<path d="M3.36657 11.6622L5.86791 13.2392C5.92229 13.2392 5.97667 13.2936 5.97667 13.1848L6.19418 12.8042C6.24855 12.7498 6.19418 12.6954 6.1398 12.6954L5.16101 12.0973L5.26977 11.8797C5.59603 11.336 5.48727 10.7922 4.9435 10.4659C4.56286 10.2484 4.29098 10.3028 4.12785 10.4116C3.91034 10.5203 3.74721 10.7378 3.63845 10.9553L3.25781 11.6079C3.31219 11.5535 3.31219 11.6079 3.36657 11.6622ZM4.12785 11.1728C4.2366 11.0097 4.39973 10.7922 4.72599 11.0097C5.10663 11.2272 4.99788 11.4991 4.83475 11.7166L4.78037 11.8254L4.01909 11.336L4.12785 11.1728Z" fill="white"/>
<path d="M8.96755 9.43308C9.72883 8.61742 8.85879 7.69301 8.58691 7.4755C8.3694 7.25799 7.39061 6.33358 6.62933 7.14924C5.86805 7.96489 6.73809 8.88931 7.00997 9.10681C7.22748 9.26995 8.20627 10.1944 8.96755 9.43308ZM7.00997 7.42112C7.33623 7.09486 7.88001 7.58425 8.15189 7.91052C8.42378 8.1824 8.96755 8.72617 8.64128 9.05244C8.31502 9.3787 7.77125 8.83493 7.49937 8.61742C7.1731 8.29116 6.68371 7.74739 7.00997 7.42112Z" fill="white"/>
<path d="M12.2301 6.82259C12.4476 6.65946 12.6651 6.44195 12.7195 6.22444C12.7195 6.22444 12.7195 6.17006 12.7195 6.11569C12.7195 6.11569 12.7195 6.06131 12.6651 6.06131L12.3932 5.89818H12.3389C12.3389 5.89818 12.2845 5.95255 12.2845 6.00693C12.2301 6.11568 12.1214 6.22444 12.0126 6.33319C11.8495 6.44195 11.6863 6.44195 11.5776 6.38757C11.3057 6.27882 11.0338 5.8438 10.9251 5.68067C10.5988 5.19127 10.49 4.91939 10.5444 4.70188C10.5444 4.59313 10.6532 4.48437 10.7619 4.37562C10.8707 4.32124 11.0338 4.26686 11.1969 4.32124C11.2513 4.32124 11.2513 4.32124 11.3057 4.32124V4.26686V3.9406V3.88622C11.3057 3.88622 11.2513 3.83185 11.1426 3.83185C10.9251 3.77747 10.6532 3.88622 10.4357 3.99498C10.055 4.26686 9.62001 4.86501 10.3813 6.06131C10.7076 6.65946 11.3057 7.36636 12.2301 6.82259Z" fill="white"/>
<path d="M15.4924 5.19167C15.7643 5.08291 15.9818 4.91978 16.0906 4.70227C16.0906 4.70227 16.145 4.6479 16.0906 4.59352C16.0906 4.59352 16.0906 4.53914 16.0362 4.53914L15.8187 4.37601C15.8187 4.37601 15.7643 4.32164 15.7643 4.37601C15.7099 4.37601 15.7099 4.43039 15.6556 4.48477C15.5468 4.59352 15.4924 4.70227 15.3293 4.70227C15.1118 4.75665 15.003 4.75665 14.8943 4.6479C14.6768 4.48477 14.4593 3.99537 14.4049 3.83224C14.1874 3.28847 14.133 3.01658 14.2418 2.79908C14.2961 2.69032 14.4049 2.58157 14.5137 2.52719C14.6768 2.47281 14.7855 2.47281 14.9487 2.52719C15.003 2.52719 15.003 2.52719 15.0574 2.52719C15.0574 2.52719 15.0574 2.47281 15.1118 2.47281L15.1662 2.14655V2.09217C15.1662 2.09217 15.1118 2.0378 15.0574 2.0378C14.8399 1.92904 14.568 1.98342 14.3505 2.09217C13.9155 2.2553 13.3717 2.79908 13.8611 4.10413C14.0243 4.70227 14.5137 5.57231 15.4924 5.19167Z" fill="white"/>
<path d="M18.1034 4.32133L18.5384 4.26695C18.5928 4.26695 18.5928 4.21257 18.6472 4.1582L19.0822 2.69002C19.1366 2.52688 19.1909 2.36375 19.2453 2.03749C19.2453 2.20062 19.2997 2.41813 19.2997 2.52688L19.5172 3.99507C19.5172 4.04944 19.5172 4.10382 19.626 4.04944L20.061 3.99507C20.1697 3.99507 20.1697 3.94069 20.1154 3.88631L19.6803 0.949948C19.6803 0.895571 19.6803 0.841193 19.5716 0.895571L19.1366 0.949948C19.0278 0.949948 19.0278 1.00432 19.0278 1.0587L18.6472 2.36375C18.5928 2.52688 18.484 2.90752 18.4297 3.12503C18.3753 2.58126 18.3753 2.69002 18.3753 2.47251L18.1578 1.16746C18.1578 1.11308 18.1578 1.0587 18.049 1.11308L17.614 1.16746C17.5596 1.16746 17.5053 1.16746 17.5596 1.27621L17.9946 4.21257C17.9946 4.26695 17.9947 4.32133 18.1034 4.32133Z" fill="white"/>
<path d="M23.6496 0.732603C23.9759 0.732603 24.1934 0.623849 24.3021 0.515095C24.4109 0.406341 24.4109 0.351964 24.4109 0.243209C24.4109 0.188832 24.4109 0.188832 24.3565 0.188832L24.0846 0.134455H24.0302C24.0302 0.134455 24.0302 0.188832 23.9759 0.243209C23.9215 0.351964 23.8671 0.406341 23.704 0.406341C23.5408 0.406341 23.4865 0.297587 23.4865 0.188832C23.4865 0.134455 23.4865 0.0800781 23.4321 0.0800781H23.3777H23.0514C23.0514 0.0800781 22.9971 0.0800781 22.9971 0.134455C22.9971 0.188832 22.9971 0.297587 23.0514 0.406341C23.1602 0.569472 23.3233 0.678226 23.6496 0.732603Z" fill="white"/>
<path d="M22.3975 3.94129L22.8325 3.99567C22.8869 3.99567 22.9413 3.99567 22.9413 3.94129L23.7026 2.63624C23.7569 2.47311 23.8657 2.36436 24.0288 2.03809C24.0288 2.20122 23.9744 2.41873 23.9744 2.52749L23.8657 3.99567C23.8657 4.05005 23.8657 4.10442 23.9744 4.10442L24.4095 4.1588C24.5182 4.1588 24.5182 4.10442 24.5182 4.05005L24.7357 1.05931C24.7357 1.00493 24.7357 0.950551 24.627 0.950551H24.192C24.0832 0.950551 24.0832 1.00493 24.0832 1.05931L23.3763 2.2556C23.3219 2.41873 23.1044 2.745 22.9957 2.9625C23.05 2.41873 23.05 2.52749 23.05 2.30998L23.1588 1.00493C23.1588 0.950551 23.1588 0.896174 23.05 0.896174L22.615 0.841797C22.5606 0.841797 22.5063 0.841797 22.5063 0.950551L22.2344 3.88692C22.3431 3.88692 22.3431 3.94129 22.3975 3.94129Z" fill="white"/>
<path d="M27.5647 4.92008C27.8366 5.02884 28.1085 5.02884 28.326 4.92008L28.3803 4.8657V4.81133L28.326 4.53944C28.326 4.53944 28.326 4.48506 28.2716 4.48506C28.2172 4.48506 28.2172 4.48506 28.1628 4.48506C27.9997 4.53944 27.8909 4.53944 27.7822 4.48506C27.5647 4.43069 27.4559 4.26756 27.4016 4.1588C27.2928 3.88692 27.4559 3.39752 27.5103 3.18001C27.6734 2.58187 27.8366 2.36436 27.9997 2.2556C28.1628 2.2556 28.2716 2.2556 28.4347 2.30998C28.5979 2.36436 28.6522 2.47311 28.761 2.58187L28.8154 2.63624C28.8154 2.63624 28.8697 2.63624 28.8697 2.58187L29.0872 2.36436L29.1416 2.30998C29.1416 2.30998 29.1416 2.2556 29.0872 2.14685C28.9785 1.92934 28.7066 1.76621 28.4891 1.71183C27.9997 1.5487 27.2928 1.60308 26.8578 2.96251C26.6947 3.66941 26.5315 4.6482 27.5647 4.92008Z" fill="white"/>
<path d="M30.1209 5.89878L30.5015 6.11628C30.5559 6.11628 30.6103 6.17066 30.6103 6.06191L31.2628 4.97437L31.4259 5.08312C31.6978 5.24625 31.6434 5.40938 31.589 5.51814L31.4259 6.06191C31.3715 6.22504 31.3172 6.38817 31.3715 6.5513C31.4259 6.76881 31.6434 6.87756 31.6978 6.93194C31.7522 6.98632 31.8066 6.93194 31.8066 6.93194L32.0784 6.71443C32.0784 6.71443 32.1328 6.66006 32.0784 6.60568L31.9697 6.49692C31.8609 6.38817 31.8609 6.33379 31.9697 6.11628L32.0784 5.73564C32.1328 5.62689 32.1872 5.35501 31.9697 5.08312C32.2416 5.1375 32.4047 5.02874 32.5135 4.86561L32.731 4.59373C32.8941 4.43059 32.9485 4.43059 33.0572 4.48497L33.166 4.53935C33.2204 4.53935 33.2204 4.53935 33.2747 4.48497L33.3291 4.15871C33.3291 4.10433 33.3291 4.10433 33.2747 4.04995C33.2204 3.99558 33.0572 3.9412 32.8941 3.9412C32.6766 3.9412 32.5135 4.10433 32.4047 4.21309L32.1328 4.53935C31.9697 4.75686 31.8066 4.75686 31.6434 4.6481L31.5347 4.59373L32.1328 3.56056C32.1872 3.50618 32.1328 3.45181 32.0784 3.45181L31.6978 3.2343C31.6434 3.2343 31.589 3.17992 31.589 3.28867L30.1209 5.8444C30.0665 5.89878 30.0665 5.89878 30.1209 5.89878Z" fill="white"/>
<path d="M33.8172 8.45411C33.8716 8.50848 33.8716 8.50848 33.926 8.45411L35.3398 7.91034C35.5029 7.85596 35.6661 7.80158 35.9379 7.63845C35.8292 7.7472 35.6661 7.91034 35.5573 8.01909L34.5785 9.10663C34.5241 9.16101 34.5241 9.16101 34.5785 9.21539L34.9048 9.54165C34.9592 9.59603 35.0135 9.54165 35.0135 9.54165L37.0255 7.36656C37.0799 7.31219 37.0799 7.31219 37.0255 7.25781L36.6992 6.98592C36.6449 6.93155 36.5905 6.93155 36.5361 6.98592L35.2854 7.5297C35.1223 7.58407 34.7417 7.7472 34.5785 7.85596C34.9592 7.47532 34.9048 7.5297 35.0135 7.42094L35.9379 6.44215C35.9923 6.38778 35.9923 6.38778 35.9379 6.3334L35.6117 5.84401C35.5573 5.78963 35.5573 5.78963 35.5029 5.84401L33.491 8.01909C33.4366 8.07347 33.4366 8.07347 33.491 8.12784L33.8172 8.45411Z" fill="white"/>
<path d="M36.482 11.2821L36.6995 11.6628C36.7539 11.7172 36.7539 11.7172 36.8083 11.7172L38.2765 11.4996C38.4396 11.4996 38.6027 11.4453 38.929 11.3909C38.7658 11.4453 38.6027 11.6084 38.494 11.6628L37.2977 12.4784C37.2433 12.4784 37.2433 12.5328 37.2977 12.5872L37.5152 12.9678C37.5696 13.0222 37.6239 13.0222 37.6239 12.9678L40.0709 11.3365C40.1253 11.3365 40.1253 11.2821 40.0709 11.2278L39.8534 10.8471C39.799 10.7927 39.799 10.7927 39.6903 10.7927L38.4396 10.9559C38.2765 10.9559 37.8958 11.0646 37.6783 11.119C38.1133 10.8471 38.0589 10.9015 38.2221 10.7927L39.3096 10.0858C39.364 10.0858 39.364 10.0315 39.3096 9.97709L39.0921 9.59645C39.0921 9.54207 39.0377 9.54207 38.9834 9.59645L36.5364 11.2278C36.4276 11.1734 36.4276 11.2278 36.482 11.2821Z" fill="white"/>
<path d="M40.2886 10.6293C40.3973 10.6293 40.5061 10.575 40.5604 10.575C40.6148 10.575 40.6148 10.5206 40.6148 10.5206L40.4517 10.2487C40.4517 10.2487 40.4517 10.1943 40.3973 10.1943C40.3973 10.1943 40.3429 10.1943 40.2886 10.1943C40.1798 10.2487 40.0711 10.1943 40.0167 10.0856C39.9623 9.97681 39.9623 9.86805 40.0167 9.7593C40.0167 9.70492 40.0711 9.70492 40.0711 9.65055C40.0711 9.65055 40.0711 9.65055 40.0711 9.59617L39.8535 9.37866C39.8535 9.37866 39.7992 9.32428 39.7992 9.37866C39.7448 9.43304 39.6904 9.48741 39.636 9.59617C39.5817 9.7593 39.5817 9.97681 39.7448 10.2487C39.9079 10.575 40.1254 10.6293 40.2886 10.6293Z" fill="white"/>
<path d="M40.0167 15.1971C39.6905 15.3059 39.5273 15.6865 39.6361 16.0128C39.7448 16.339 40.1255 16.5566 40.4517 16.3934C40.778 16.2847 40.9955 15.904 40.8324 15.5778C40.778 15.2515 40.3974 15.0884 40.0167 15.1971Z" fill="white"/>
<path d="M0.538646 20.3633H0.593023L0.864908 20.2545C0.864908 20.2545 0.919285 20.2545 0.919285 20.2001C0.919285 20.1458 0.919285 20.1458 0.864908 20.0914C0.810531 19.9283 0.810531 19.8195 0.810531 19.6564C0.810531 19.4389 0.973662 19.3301 1.02804 19.2757C1.24555 19.1126 1.78932 19.167 2.00683 19.2214C2.60498 19.2757 2.87686 19.3845 2.98562 19.5476C3.03999 19.6564 3.09437 19.7651 3.09437 19.9283C3.09437 20.0914 2.98562 20.2001 2.87686 20.3089C2.87686 20.3089 2.82248 20.3633 2.82248 20.4176C2.82248 20.472 2.82248 20.472 2.87686 20.472L3.09437 20.6895L3.14875 20.7439C3.20312 20.7439 3.20312 20.7439 3.2575 20.6895C3.42063 20.5264 3.52939 20.2545 3.58376 20.037C3.63814 19.5476 3.47501 18.8407 2.0612 18.6776C1.40868 18.6232 0.429891 18.6232 0.321137 19.6564C0.26676 19.9283 0.321137 20.2001 0.429891 20.4176C0.484268 20.3089 0.484268 20.3633 0.538646 20.3633Z" fill="white"/>
<path d="M2.00754 24.8221C2.3338 24.8221 3.63885 24.6589 3.58447 23.5714C3.47572 22.4295 2.17067 22.5382 1.84441 22.5926C1.51814 22.5926 0.213093 22.7557 0.321847 23.8433C0.376224 24.9308 1.68128 24.8764 2.00754 24.8221ZM0.756864 23.7889C0.702487 23.3539 1.46377 23.2451 1.84441 23.1907C2.27942 23.1364 2.98633 23.1364 3.0407 23.5714C3.09508 24.0064 2.38818 24.1152 1.95316 24.1695C1.57252 24.2239 0.811241 24.2239 0.756864 23.7889Z" fill="white"/>
<path d="M4.67151 28.628C4.50838 28.2474 4.23649 27.9755 3.80148 27.9211C3.52959 27.8668 3.20333 27.9211 3.0402 27.9755L2.93144 27.6493L4.01898 27.2686C4.12774 27.2142 4.07336 27.2142 4.07336 27.1599L3.96461 26.7248C3.96461 26.6705 3.91023 26.6161 3.85585 26.6705L1.08262 27.6493C0.973866 27.7036 1.02824 27.7036 1.02824 27.758L1.19137 28.1387C1.19137 28.193 1.24575 28.2474 1.30013 28.193L2.44205 27.8124L2.5508 28.1387C2.38767 28.193 2.06141 28.3018 1.78952 28.5737C1.46326 28.8999 1.40888 29.2262 1.51764 29.6612C1.89828 30.6944 3.14895 30.3137 3.42084 30.205C3.80148 30.1506 5.05215 29.6612 4.67151 28.628ZM2.00703 29.5525C1.89828 29.0631 2.60518 28.7912 2.98582 28.6824C3.36646 28.5193 4.07336 28.3562 4.23649 28.7912C4.39962 29.2262 3.63834 29.4981 3.31208 29.6612C2.93144 29.7156 2.17016 29.9875 2.00703 29.5525Z" fill="white"/>
<path d="M5.81354 31.4558C5.75916 31.4014 5.70478 31.4014 5.65041 31.4558L5.59603 31.5102L5.48727 31.7821C5.48727 31.8365 5.48727 31.8365 5.48727 31.8365C5.48727 31.8365 5.54165 31.8908 5.59603 31.8908C5.81354 31.9996 5.86791 32.1083 5.92229 32.1627C6.1398 32.489 5.86791 32.7065 5.81354 32.7609C5.75916 32.8152 5.4329 32.9784 5.16101 32.5977L5.10663 32.5434C5.05226 32.489 4.99788 32.489 4.99788 32.489L4.72599 32.6521C4.61724 32.5977 4.61724 32.6521 4.67162 32.7065L4.72599 32.8152C4.78037 32.924 4.83475 33.0328 4.83475 33.1415C4.83475 33.2503 4.78037 33.4134 4.56286 33.5222C4.50849 33.5765 4.39973 33.6309 4.2366 33.5765C4.07347 33.5765 3.96471 33.4134 3.85596 33.3046C3.74721 33.0871 3.69283 32.924 3.69283 32.8696C3.69283 32.8152 3.69283 32.7609 3.69283 32.7609C3.69283 32.7065 3.63845 32.7609 3.63845 32.7609H3.36657C3.31219 32.7609 3.31219 32.7609 3.31219 32.7609C3.31219 32.7609 3.25781 32.8152 3.25781 32.8696C3.25781 33.0871 3.31219 33.359 3.47532 33.6309C3.96472 34.3378 4.50849 34.3378 4.9435 34.0659C5.32414 33.8484 5.4329 33.5222 5.26977 33.1959C5.37852 33.2503 5.70478 33.4678 6.1398 33.1959C6.57482 32.924 6.68357 32.4346 6.35731 31.9996C6.19418 31.6733 5.97667 31.5646 5.81354 31.4558Z" fill="white"/>
<path d="M11.1975 37.2195L9.67497 36.0232C9.62059 35.9688 9.56621 36.0232 9.56621 36.0232L9.29433 36.3495C9.29433 36.3495 9.23995 36.4038 9.29433 36.4582L9.78372 36.8388L8.20678 38.7964C8.20678 38.8508 8.15241 38.8508 8.20678 38.9052L8.53305 39.1771C8.58742 39.1771 8.58742 39.2314 8.6418 39.1771L10.2187 37.2195L10.6538 37.6001C10.7081 37.6001 10.7081 37.6545 10.7625 37.6001L11.0888 37.3826C11.1975 37.3282 11.2519 37.2739 11.1975 37.2195Z" fill="white"/>
<path d="M14.3507 39.0684L14.0245 38.8509C13.9701 38.7965 13.9157 38.8509 13.8613 38.9053L13.1 39.7209C12.9913 39.8841 12.8825 39.9384 12.665 40.2103C12.7194 39.9384 12.7738 39.7753 12.7738 39.5578L12.9913 38.4159C12.9913 38.3071 13.0457 38.3071 12.8825 38.2527L12.5019 38.0896C12.3931 38.0352 12.3931 38.0352 12.3388 38.0896V38.144L12.0669 40.3734C12.0669 40.3734 12.0669 40.4278 12.1213 40.4278L12.3931 40.591L12.2844 40.6997C12.23 40.7541 12.0669 40.9172 11.795 40.8085C11.7406 40.7541 11.6319 40.6997 11.5775 40.591C11.5775 40.5366 11.5231 40.5366 11.5231 40.5366H11.4687L11.1969 40.7541C11.1425 40.8085 11.1425 40.8085 11.2512 40.9172C11.36 41.0804 11.5231 41.1891 11.6319 41.2435C11.8494 41.3522 12.0125 41.3522 12.1756 41.3522C12.3388 41.2979 12.5019 41.1891 12.6107 41.0804L14.3507 39.2315C14.4051 39.1772 14.4051 39.1772 14.4051 39.1772C14.4595 39.1228 14.4051 39.1228 14.3507 39.0684Z" fill="white"/>
<path d="M17.0154 39.9934L16.3085 39.7759C16.2541 39.7759 16.1998 39.7759 16.1998 39.8303L15.4385 42.7122C15.4385 42.7666 15.4385 42.821 15.4929 42.821L15.9279 42.9298C15.9822 42.9298 16.0366 42.9297 16.0366 42.8754L16.3629 41.7335L16.5804 41.7878C17.2329 41.951 17.7223 41.6791 17.8854 41.0809C17.9942 40.6459 17.8854 40.374 17.7223 40.2653C17.5048 40.1021 17.2329 40.0478 17.0154 39.9934ZM17.2329 40.9722C17.1242 41.4072 16.8523 41.3528 16.5804 41.2984L16.4173 41.2441L16.6348 40.374L16.8523 40.4284C17.0154 40.4828 17.3417 40.5915 17.2329 40.9722Z" fill="white"/>
<path d="M22.1263 40.6452H21.6912C21.5825 40.6452 21.5825 40.6996 21.5825 40.754L20.93 41.9502C20.8756 42.1134 20.6581 42.494 20.6037 42.6572C20.6581 42.1134 20.6581 42.2221 20.6581 42.0046L20.7125 40.6996C20.7125 40.6452 20.7125 40.5908 20.6037 40.5908H20.1687C20.1143 40.5908 20.0599 40.5908 20.0599 40.6996L19.9512 43.6359C19.9512 43.6903 19.9512 43.7447 20.0599 43.7447H20.4949C20.5493 43.7447 20.6037 43.7447 20.6037 43.6903L21.3106 42.3309C21.365 42.1678 21.4737 42.059 21.5825 41.7327C21.5825 41.8959 21.5281 42.1134 21.5281 42.2221L21.4737 43.6903C21.4737 43.7447 21.4737 43.7991 21.5825 43.7991H22.0175C22.1263 43.7991 22.1263 43.7447 22.1263 43.6903L22.235 40.754C22.235 40.6996 22.235 40.6452 22.1263 40.6452Z" fill="white"/>
<path d="M26.4759 40.156C26.4759 40.1016 26.4759 40.0472 26.3671 40.1016L25.9321 40.2104C25.8777 40.2104 25.8234 40.2104 25.8777 40.3191L26.0952 41.4611L25.2796 41.5698L25.0621 40.4279C25.0621 40.3191 25.0077 40.3735 24.9533 40.3735L24.5183 40.4823C24.4639 40.4823 24.4096 40.4823 24.4639 40.591L25.0621 43.473C25.0621 43.5818 25.1165 43.5274 25.1708 43.5274L25.6058 43.4186C25.6602 43.4186 25.7146 43.4186 25.6602 43.3099L25.3883 42.0592L26.2584 41.8961L26.5303 43.1467C26.5303 43.2555 26.5846 43.2011 26.639 43.2011L27.074 43.0924C27.1828 43.0924 27.1284 43.038 27.1284 42.9836L26.4759 40.156Z" fill="white"/>
<path d="M31.6427 40.9717C31.6427 40.9173 31.5884 40.9173 31.534 40.9173L31.3708 40.9717L30.2833 38.6335C30.2833 38.5791 30.2289 38.5791 30.1745 38.5791L28.8151 39.2316C28.7607 39.286 28.7607 39.3404 28.7607 39.3404L29.1414 40.156C29.1958 40.2104 29.3589 40.5911 29.4676 41.0261C29.522 41.298 29.5764 41.5155 29.5764 41.8417L29.522 41.8961C29.4676 41.9505 29.4676 42.0049 29.4676 42.0049L29.9027 42.9836C29.9027 43.038 29.957 43.038 30.0114 43.038L30.3921 42.8749C30.4464 42.8749 30.4464 42.8205 30.4464 42.7661L30.1745 42.168L31.3708 41.6242L31.6427 42.2224C31.6427 42.2767 31.6971 42.2767 31.7515 42.2767L32.1321 42.1136C32.1865 42.0592 32.1865 42.0049 32.1865 42.0049L31.6427 40.9717ZM30.0658 41.5698C30.0658 41.3523 30.0658 41.1892 30.0114 40.9717C29.957 40.7542 29.9027 40.4823 29.6852 40.0473L29.4676 39.5035L29.9027 39.286L30.8271 41.2436L30.0658 41.5698Z" fill="white"/>
<path d="M33.8176 36.3495C33.8176 36.2952 33.8176 36.2952 33.7633 36.2952C33.7089 36.2408 33.7089 36.2952 33.6545 36.2952L33.2739 36.5127C33.2195 36.5671 33.2195 36.6214 33.2739 36.6758L33.7089 37.709C33.7633 37.8721 33.8176 38.0352 33.9808 38.3071C33.7633 38.144 33.6001 38.0352 33.437 37.9265L32.5126 37.274C32.4582 37.2196 32.4582 37.2196 32.3495 37.274L32.0232 37.5458C31.9688 37.6002 31.9144 37.6546 31.9688 37.6546C31.9688 37.6546 32.0232 37.6546 32.0232 37.709L33.9264 38.9053H33.9808L34.1983 38.7421L34.2527 38.9053C34.307 39.014 34.3614 39.2315 34.1439 39.3947C34.0895 39.449 33.9808 39.5034 33.872 39.5034C33.8176 39.5034 33.8176 39.5034 33.8176 39.5034V39.5578L33.9264 39.9384C33.9264 39.9928 33.9264 39.9928 34.0895 39.9928C34.2527 39.9384 34.4158 39.8841 34.5789 39.7753C34.7964 39.6122 34.8508 39.449 34.9052 39.3403C34.9596 39.1772 34.9052 38.9596 34.8508 38.7965L33.8176 36.3495Z" fill="white"/>
<path d="M38.2773 35.588L38.0054 35.5337H37.951C37.951 35.5337 37.951 35.588 37.8966 35.6424C37.8423 35.8055 37.8423 35.9143 37.7335 36.0231C37.5704 36.1862 37.4616 36.1862 37.2985 36.1862C37.0266 36.1862 36.646 35.8055 36.4828 35.6968C36.0478 35.3161 35.8847 35.0443 35.8303 34.8811C35.8303 34.7724 35.8847 34.6092 35.9934 34.5005C36.1022 34.3917 36.2109 34.3374 36.3741 34.3374C36.4285 34.3374 36.4285 34.3374 36.4828 34.283V34.2286L36.4285 33.9567C36.4285 33.9567 36.4285 33.9023 36.3741 33.9023C36.3741 33.9023 36.3197 33.9023 36.2109 33.9023C35.9934 33.9567 35.7216 34.1199 35.5584 34.283C35.2322 34.6636 35.0147 35.3161 36.0478 36.2949C36.5372 36.73 37.3529 37.2737 38.0054 36.4581C38.1685 36.2406 38.3317 35.9687 38.3317 35.8055C38.3317 35.8055 38.3317 35.7512 38.3317 35.6968C38.3317 35.6424 38.3317 35.6424 38.2773 35.588Z" fill="white"/>
<path d="M40.3418 32.9239L38.2211 31.6188L38.493 31.1294C38.493 31.075 38.5473 31.075 38.493 31.0207L38.2211 30.7488C38.2211 30.7488 38.1667 30.6944 38.1123 30.7488L37.1335 32.4345C37.0792 32.4888 37.1335 32.5432 37.1335 32.5432L37.5142 32.7607C37.5142 32.7607 37.5686 32.8151 37.6229 32.7607L37.9492 32.217L40.0699 33.522C40.1243 33.522 40.1787 33.5764 40.1787 33.4676L40.3962 33.087C40.3962 33.0326 40.3962 32.9782 40.3418 32.9239Z" fill="white"/>
<path d="M41.9201 29.5523L40.8326 29.1716L40.887 28.9541C41.1045 28.356 40.8326 27.8122 40.2888 27.6491C39.8538 27.4859 39.5819 27.5947 39.4731 27.7578C39.31 27.9209 39.2013 28.1928 39.0925 28.356L38.875 29.0629C38.875 29.1172 38.875 29.1716 38.9294 29.1716L41.7026 30.1504C41.757 30.1504 41.8114 30.1504 41.8114 30.096L41.9745 29.661C41.9745 29.6066 41.9745 29.6066 41.9201 29.5523ZM40.3976 28.8997L40.3432 29.0085L39.4731 28.6822L39.5275 28.5191C39.5819 28.356 39.6907 28.0841 40.0713 28.2472C40.5607 28.356 40.5063 28.6278 40.3976 28.8997Z" fill="white"/>
<path d="M43.2236 23.5714L40.2872 23.2451C40.2328 23.2451 40.1784 23.2451 40.1784 23.2995L40.1241 23.7345C40.1241 23.8433 40.1241 23.8433 40.1784 23.8433L41.3747 24.5502C41.5379 24.6589 41.8641 24.8221 42.0273 24.9308C41.4835 24.8764 41.5923 24.8764 41.3747 24.8221L40.0697 24.6589C40.0153 24.6589 39.9609 24.6589 39.9609 24.7133V25.2571C39.9609 25.3114 39.9609 25.3658 40.0153 25.3658L42.9517 25.6921C43.0061 25.6921 43.0604 25.6921 43.0604 25.6377L43.1148 25.2027C43.1148 25.1483 43.1148 25.0939 43.0604 25.0939L41.8098 24.2783C41.6466 24.1695 41.5379 24.1152 41.2116 23.952C41.3747 24.0064 41.5922 24.0064 41.701 24.0064L43.1692 24.1695C43.2236 24.1695 43.2779 24.1695 43.2779 24.1152L43.3323 23.6801C43.3323 23.5714 43.2779 23.5714 43.2236 23.5714Z" fill="white"/>
<path d="M39.9609 18.9493L40.0153 19.3843C40.0153 19.493 40.0697 19.493 40.1241 19.493L41.4291 19.928C41.5922 19.9824 41.9729 20.0912 42.1904 20.1455C41.6466 20.1999 41.7554 20.1999 41.5379 20.1999L40.2328 20.3631C40.1784 20.3631 40.1241 20.3631 40.1784 20.4718L40.2328 20.9068C40.2328 20.9612 40.2328 21.0156 40.3416 20.9612L43.2779 20.6349C43.3323 20.6349 43.3867 20.6349 43.3323 20.5262L43.2779 20.0912C43.2779 20.0368 43.2236 20.0368 43.1692 19.9824L41.7554 19.493C41.5923 19.4386 41.4291 19.3843 41.1029 19.3299C41.266 19.3299 41.4835 19.3299 41.5923 19.2755L43.0604 19.1124C43.1148 19.1124 43.1692 19.1124 43.1148 19.0036L43.0604 18.5686C43.0604 18.4599 43.0061 18.4599 42.9517 18.5142L40.0153 18.8405C40.0153 18.8405 39.9609 18.8949 39.9609 18.9493Z" fill="white"/>
<path d="M32.8933 27.7583H28.0537V33.5767H32.8933V27.7583Z" fill="white"/>
<path d="M16.1992 22.7553C16.1992 27.0511 19.7337 29.1718 24.1927 29.1718C25.4977 29.1718 26.3677 28.9543 27.2922 28.6824V28.628V26.1267V25.5285H27.2378C26.3677 25.8004 25.9871 25.9635 25.0627 25.9635C24.7364 25.9635 24.4102 25.9092 24.0839 25.8548C22.507 25.5829 21.4194 24.5497 21.4194 22.8097C21.4194 22.7009 21.4194 22.5922 21.4194 22.4834H16.1992C16.1992 22.6465 16.1992 22.7009 16.1992 22.7553Z" fill="white"/>
<path d="M15.7637 14.7624C15.7637 13.5117 15.1112 13.5117 13.9149 13.5117H13.208V16.1762H14.7306C15.3831 16.1218 15.7637 15.7412 15.7637 14.7624Z" fill="white"/>
<path d="M13.0466 18.9491H15.983C17.8862 18.9491 19.5175 18.2422 20.2244 16.6108H8.20703V22.3204H13.0466V18.9491Z" fill="white"/>
<path d="M6.24837 50.9228C5.10645 50.9228 5.10645 49.6177 5.10645 49.2915C5.10645 48.9652 5.10645 47.6602 6.24837 47.6602C7.39028 47.6602 7.39028 48.9652 7.39028 49.2915C7.39028 49.6177 7.33591 50.9228 6.24837 50.9228ZM6.73776 49.2915C6.73776 48.8565 6.68338 48.1496 6.24837 48.1496C5.81335 48.1496 5.75897 48.8565 5.75897 49.2915C5.75897 49.6721 5.81335 50.4334 6.24837 50.4334C6.68338 50.4334 6.73776 49.6721 6.73776 49.2915Z" fill="white"/>
<path d="M9.72711 50.5965C9.72711 50.6509 9.72711 50.6509 9.72711 50.6509C9.72711 50.7053 9.67273 50.7053 9.67273 50.7053C9.5096 50.814 9.23771 50.9228 8.96583 50.9228C7.93266 50.9228 7.76953 49.9984 7.76953 49.3458C7.76953 47.932 8.42206 47.6602 8.91145 47.6602C9.12896 47.6602 9.40085 47.7145 9.61835 47.8777C9.67273 47.932 9.72711 47.9864 9.72711 47.9864V48.0408L9.56398 48.3127C9.56398 48.3127 9.56398 48.3671 9.5096 48.3671C9.45522 48.3671 9.45522 48.3127 9.40084 48.3127C9.29209 48.2039 9.18334 48.1496 9.02021 48.1496C8.85707 48.1496 8.74832 48.2039 8.63956 48.3127C8.47643 48.4758 8.42206 48.7477 8.42206 49.3458C8.42206 49.5634 8.42206 50.0528 8.58519 50.2703C8.63957 50.379 8.8027 50.4878 8.96583 50.4878C9.07458 50.4878 9.23771 50.4334 9.34647 50.379C9.40085 50.3246 9.45522 50.3246 9.45522 50.3246C9.5096 50.3246 9.5096 50.3246 9.5096 50.379L9.72711 50.5965Z" fill="white"/>
<path d="M10.2715 47.8231C10.2715 47.7144 10.3259 47.7144 10.3802 47.7144H10.8153C10.8696 47.7144 10.924 47.7144 10.924 47.8231V49.0194H11.794V47.8775C11.794 47.7687 11.8484 47.7687 11.9028 47.7687H12.3378C12.4466 47.7687 12.4466 47.8231 12.4466 47.8775V50.8139C12.4466 50.8682 12.4466 50.9226 12.3378 50.9226H11.9028C11.8484 50.9226 11.794 50.9226 11.794 50.8139V49.5088H10.924V50.8139C10.924 50.9226 10.8696 50.9226 10.8153 50.9226H10.3802C10.3259 50.9226 10.2715 50.9226 10.2715 50.8139V47.8231Z" fill="white"/>
<path d="M14.1331 50.9228C12.9912 50.9228 12.9912 49.6177 12.9912 49.2915C12.9912 48.9652 12.9912 47.6602 14.1331 47.6602C15.2751 47.6602 15.2751 48.9652 15.2751 49.2915C15.2751 49.6177 15.2751 50.9228 14.1331 50.9228ZM14.6225 49.2915C14.6225 48.8565 14.5681 48.1496 14.1331 48.1496C13.6981 48.1496 13.6437 48.8565 13.6437 49.2915C13.6437 49.6721 13.6981 50.4334 14.1331 50.4334C14.6225 50.4334 14.6225 49.6721 14.6225 49.2915Z" fill="white"/>
<path d="M16.6884 47.7145C16.9059 47.7145 17.2322 47.7145 17.4497 47.8777C17.6128 47.9864 17.7216 48.2039 17.7216 48.4758C17.7216 48.8565 17.5041 49.074 17.2322 49.1827C17.3953 49.2371 17.8303 49.4002 17.8303 49.944C17.8303 50.7053 17.1778 50.814 16.6884 50.814H15.9271C15.8184 50.814 15.8184 50.7597 15.8184 50.7053V47.7689C15.8184 47.6602 15.8727 47.6602 15.9271 47.6602H16.6884V47.7145ZM16.6884 49.0196C16.9059 49.0196 17.1778 48.9652 17.1778 48.5846C17.1778 48.4758 17.1234 48.2039 16.7428 48.2039H16.5253V49.0196H16.6884ZM16.6884 50.379C16.9603 50.379 17.2865 50.3246 17.2865 49.944C17.2865 49.509 16.9059 49.509 16.6884 49.509H16.5253V50.379H16.6884Z" fill="white"/>
<path d="M19.7871 47.7144C19.8415 47.7144 19.8415 47.7687 19.8415 47.7687L20.7115 50.7051V50.7595C20.7115 50.8139 20.6572 50.8139 20.6572 50.8139H20.1678C20.1134 50.8139 20.1134 50.8139 20.059 50.7051L19.8415 50.0526H19.0802L18.9171 50.8139C18.9171 50.8682 18.9171 50.9226 18.8083 50.9226H18.3189C18.2102 50.9226 18.2646 50.8682 18.2646 50.8139L19.189 47.8231C19.189 47.7687 19.189 47.7687 19.2434 47.7687H19.7871V47.7144ZM19.5696 48.8563C19.5152 48.6931 19.5152 48.5844 19.4609 48.2581C19.4609 48.3669 19.4609 48.53 19.3521 48.8563L19.1346 49.6176H19.7328L19.5696 48.8563Z" fill="white"/>
<path d="M21.2559 47.8231C21.2559 47.7144 21.3102 47.7144 21.3646 47.7144H21.7996C21.854 47.7144 21.9084 47.7144 21.9084 47.8231V49.0194H22.7784V47.8775C22.7784 47.7687 22.8328 47.7687 22.8872 47.7687H23.3222C23.4309 47.7687 23.4309 47.8231 23.4309 47.8775V50.8139C23.4309 50.8682 23.4309 50.9226 23.3222 50.9226H22.8872C22.8328 50.9226 22.7784 50.9226 22.7784 50.8139V49.5088H21.9084V50.8139C21.9084 50.9226 21.854 50.9226 21.7996 50.9226H21.3646C21.3102 50.9226 21.2559 50.9226 21.2559 50.8139V47.8231Z" fill="white"/>
<path d="M26.0419 47.7145C26.2594 47.7145 26.5857 47.7145 26.8032 47.8777C26.9663 47.9864 27.0751 48.2039 27.0751 48.4758C27.0751 48.8565 26.8576 49.074 26.5857 49.1827C26.7488 49.2371 27.1838 49.4002 27.1838 49.944C27.1838 50.7053 26.5313 50.814 26.0419 50.814H25.2806C25.1719 50.814 25.1719 50.7597 25.1719 50.7053V47.7689C25.1719 47.6602 25.2263 47.6602 25.2806 47.6602H26.0419V47.7145ZM25.9875 49.0196C26.205 49.0196 26.4769 48.9652 26.4769 48.5846C26.4769 48.4758 26.4225 48.2039 26.0419 48.2039H25.8244V49.0196H25.9875ZM25.9875 50.379C26.2594 50.379 26.5857 50.3246 26.5857 49.944C26.5857 49.509 26.205 49.509 25.9875 49.509H25.8244V50.379H25.9875Z" fill="white"/>
<path d="M30.7186 50.8138C30.7186 50.8682 30.7186 50.8682 30.6642 50.8682H29.2504C29.2504 50.8682 29.196 50.8682 29.196 50.8138V50.5419C29.196 50.5419 29.196 50.4875 29.2504 50.4875H29.6854V48.53L29.196 48.8562H29.1416C29.0873 48.8562 29.0873 48.8019 29.0873 48.8019L28.9785 48.5843V48.53C28.9785 48.4756 28.9785 48.4756 29.0329 48.4756L29.9029 47.8774H30.1748C30.2836 47.8774 30.2836 47.9318 30.2836 47.9862V50.5419H30.6642C30.7186 50.5419 30.7186 50.5963 30.7186 50.5963V50.8138Z" fill="white"/>
<path d="M32.7295 49.6719C32.5664 49.9438 32.2945 49.9438 32.1858 49.9438C31.7508 49.9438 31.3701 49.6176 31.3701 48.8563C31.3701 48.0406 31.8595 47.7144 32.3489 47.7144C32.6752 47.7144 32.9471 47.8775 33.1102 48.095C33.3277 48.3669 33.3277 48.8019 33.3277 49.0194C33.3277 49.4544 33.2733 49.8894 33.0558 50.2701C32.7295 50.7595 32.2945 50.8682 31.9683 50.8682C31.8595 50.8682 31.6964 50.8682 31.5876 50.7595C31.5332 50.7051 31.5332 50.7051 31.5332 50.6507L31.642 50.3245C31.642 50.3245 31.642 50.2701 31.6964 50.2701C31.7508 50.2701 31.7508 50.2701 31.8051 50.3245C31.8595 50.3245 31.9139 50.3788 31.9683 50.3788C32.1858 50.3788 32.5664 50.2701 32.7295 49.6719ZM31.9139 48.8563C31.9139 49.4 32.1314 49.4544 32.2945 49.4544C32.4577 49.4544 32.7295 49.3457 32.7295 48.8563C32.7295 48.3125 32.4577 48.2038 32.3489 48.2038C32.1314 48.2038 31.9139 48.3125 31.9139 48.8563Z" fill="white"/>
<path d="M35.2862 49.6719C35.1231 49.9438 34.8512 49.9438 34.7424 49.9438C34.3074 49.9438 33.9268 49.6176 33.9268 48.8563C33.9268 48.0406 34.4162 47.7144 34.9055 47.7144C35.2318 47.7144 35.5037 47.8775 35.6668 48.095C35.8843 48.3669 35.8843 48.8019 35.8843 49.0194C35.8843 49.4544 35.83 49.8894 35.6124 50.2701C35.2862 50.7595 34.8512 50.8682 34.5249 50.8682C34.4162 50.8682 34.253 50.8682 34.1443 50.7595C34.0899 50.7051 34.0899 50.7051 34.0899 50.6507L34.1986 50.3245C34.1986 50.3245 34.1986 50.2701 34.253 50.2701C34.3074 50.2701 34.3074 50.2701 34.3618 50.3245C34.4162 50.3245 34.4705 50.3788 34.5249 50.3788C34.7424 50.3788 35.1231 50.2701 35.2862 49.6719ZM34.4162 48.8563C34.4162 49.4 34.6337 49.4544 34.7968 49.4544C34.9599 49.4544 35.2318 49.3457 35.2318 48.8563C35.2318 48.3125 34.9599 48.2038 34.8512 48.2038C34.688 48.2038 34.4162 48.3125 34.4162 48.8563Z" fill="white"/>
<path d="M36.9178 49.1285C36.9178 49.0197 36.9722 49.0197 37.0265 49.0197H37.1897C37.5703 49.0197 37.6791 48.8022 37.6791 48.5847C37.6791 48.3128 37.5159 48.2041 37.2984 48.2041C37.0809 48.2041 36.9722 48.3672 36.9178 48.4216C36.8634 48.4759 36.8634 48.5303 36.809 48.5303H36.7547L36.4828 48.3128C36.4828 48.3128 36.4828 48.3128 36.4828 48.2584C36.4828 48.2041 36.5372 48.1497 36.5372 48.1497C36.7003 47.9322 36.9722 47.769 37.2984 47.769C37.8422 47.769 38.1685 48.0953 38.1685 48.5847C38.1685 48.9653 37.951 49.1829 37.7335 49.2372C38.1141 49.346 38.2772 49.6722 38.2772 49.9985C38.2772 50.5423 37.8966 50.9773 37.2441 50.9773C36.9722 50.9773 36.7003 50.9229 36.4828 50.8142C36.374 50.7598 36.374 50.7054 36.374 50.7054L36.4828 50.3791C36.4828 50.3791 36.4828 50.3248 36.5372 50.3248C36.5915 50.3248 36.6459 50.3791 36.7547 50.4335C36.9178 50.4879 37.0265 50.5423 37.1897 50.5423C37.6791 50.5423 37.6791 50.1616 37.6791 50.0529C37.6791 49.6179 37.2441 49.6179 37.1353 49.6179H36.9722C36.9178 49.6179 36.8634 49.6179 36.8634 49.5091V49.1285H36.9178Z" fill="white"/>
<path d="M54.3172 7.04102C54.9697 7.04102 55.4591 7.25852 55.8942 7.63916C56.2748 8.07418 56.4923 8.56357 56.4923 9.2161C56.4923 9.86863 56.2748 10.358 55.8942 10.793C55.5135 11.2281 54.9697 11.3912 54.3172 11.3912H52.7947V13.6206H51.3809V7.04102H54.3172ZM54.0997 10.1949C54.6979 10.1949 55.0241 9.75987 55.0241 9.2161C55.0241 8.61795 54.6435 8.23731 54.0997 8.23731H52.7947V10.1949H54.0997Z" fill="white"/>
<path d="M60.8974 13.7835C59.5924 13.7835 58.4505 13.131 57.9067 12.0434C57.6348 11.4997 57.4717 10.9559 57.4717 10.3034C57.4717 9.0527 58.0698 7.91078 59.1574 7.31264C59.7011 6.98637 60.2993 6.82324 60.9518 6.82324C61.6043 6.82324 62.2025 6.98637 62.7463 7.31264C63.29 7.6389 63.6707 8.01954 63.9969 8.56331C64.2688 9.10708 64.432 9.65085 64.432 10.3034C64.432 11.5541 63.8338 12.696 62.7463 13.2941C62.1481 13.6204 61.55 13.7835 60.8974 13.7835ZM62.3112 11.8259C62.6919 11.3909 62.855 10.9015 62.855 10.3578C62.855 9.81398 62.6375 9.27021 62.3112 8.88957C61.9306 8.45456 61.4956 8.29142 60.8974 8.29142C60.3537 8.29142 59.8643 8.50893 59.4836 8.88957C59.103 9.32459 58.9399 9.81398 58.9399 10.3578C58.9399 11.4997 59.7555 12.4785 60.8974 12.4785C61.4412 12.4241 61.9306 12.2066 62.3112 11.8259Z" fill="white"/>
<path d="M65.4653 10.3035C65.4109 8.45472 66.9335 6.82341 68.9454 6.87779C69.5436 6.87779 70.0873 6.98654 70.6855 7.25843V8.72661C70.1417 8.40035 69.5979 8.29159 69.0542 8.29159C68.456 8.29159 67.9666 8.5091 67.5316 8.88974C67.151 9.27038 66.9335 9.75977 66.9335 10.3579C66.9335 10.9561 67.151 11.4455 67.5316 11.8261C67.9122 12.2067 68.4016 12.4243 69.0542 12.4243C69.6523 12.4243 70.1961 12.2611 70.6855 11.9892V13.4574C70.1417 13.7293 69.5436 13.8381 68.9454 13.8381C66.9335 13.7837 65.4109 12.2067 65.4653 10.3035Z" fill="white"/>
<path d="M71.6098 10.3035C71.5554 8.45472 73.078 6.82341 75.09 6.87779C75.6881 6.87779 76.2319 6.98654 76.83 7.25843V8.72661C76.2862 8.40035 75.7425 8.29159 75.1987 8.29159C74.6006 8.29159 74.1112 8.5091 73.6761 8.88974C73.2955 9.27038 73.078 9.75977 73.078 10.3579C73.078 10.9561 73.2955 11.4455 73.6761 11.8261C74.0568 12.2067 74.5462 12.4243 75.1987 12.4243C75.7969 12.4243 76.3406 12.2611 76.83 11.9892V13.4574C76.2862 13.7293 75.6881 13.8381 75.09 13.8381C73.078 13.7837 71.5554 12.2067 71.6098 10.3035Z" fill="white"/>
<path d="M78.2451 13.6206V7.04102H79.6589V11.2281L82.8128 7.04102H84.1722V13.6206H82.7584V9.43361L79.6045 13.6206H78.2451Z" fill="white"/>
<path d="M85.8564 13.62V7.04041H87.2703V11.2274L90.4241 7.04041H91.7836V13.62H90.3697V9.433L87.2159 13.62H85.8564ZM87.2159 5.13721H88.0315C88.0315 5.51785 88.249 5.73535 88.6841 5.73535C89.1191 5.73535 89.391 5.46347 89.391 5.13721H90.2066C90.2066 6.06162 89.5541 6.60539 88.6841 6.60539C87.8684 6.60539 87.2159 6.06162 87.2159 5.13721Z" fill="white"/>
<path d="M93.0346 10.3035C92.9802 8.45472 94.5028 6.82341 96.5147 6.87779C97.1129 6.87779 97.6567 6.98654 98.2548 7.25843V8.72661C97.711 8.40035 97.1673 8.29159 96.6235 8.29159C96.0254 8.29159 95.536 8.5091 95.1009 8.88974C94.7203 9.27038 94.5028 9.75977 94.5028 10.3579C94.5028 10.9561 94.7203 11.4455 95.1009 11.8261C95.4816 12.2067 95.971 12.4243 96.6235 12.4243C97.2216 12.4243 97.7654 12.2611 98.2548 11.9892V13.4574C97.711 13.7293 97.1129 13.8381 96.5147 13.8381C94.5028 13.7837 93.0346 12.2067 93.0346 10.3035Z" fill="white"/>
<path d="M103.312 13.6206L101.245 10.8474H101.136V13.6206H99.7227V7.04102H101.136V9.81425H101.245L103.312 7.04102H104.888L102.387 10.3036L104.943 13.5663H103.312V13.6206Z" fill="white"/>
<path d="M106.031 13.6206V7.04102H107.445V11.2281L110.599 7.04102H111.958V13.6206H110.545V9.43361L107.391 13.6206H106.031Z" fill="white"/>
<path d="M113.589 13.62V7.04041H115.003V11.2274L118.157 7.04041H119.516V13.62H118.102V9.433L114.948 13.62H113.589ZM115.003 5.13721H115.818C115.818 5.51785 116.036 5.73535 116.471 5.73535C116.906 5.73535 117.178 5.46347 117.178 5.13721H117.993C117.993 6.06162 117.341 6.60539 116.471 6.60539C115.655 6.60539 115.003 6.06162 115.003 5.13721Z" fill="white"/>
<path d="M51.0551 22.2664C51.0007 20.4176 52.5233 18.7863 54.5353 18.8407C55.1334 18.8407 55.6772 18.9494 56.2753 19.2213V20.6895C55.7316 20.3632 55.1878 20.2545 54.644 20.2545C54.0459 20.2545 53.5565 20.472 53.1215 20.8526C52.7408 21.2333 52.5233 21.7227 52.5233 22.3208C52.5233 22.919 52.7408 23.4084 53.1215 23.789C53.5021 24.1696 53.9915 24.3871 54.644 24.3871C55.2422 24.3871 55.7859 24.224 56.2753 23.9521V25.4203C55.7316 25.6922 55.1334 25.8009 54.5353 25.8009C52.5233 25.7466 51.0007 24.1153 51.0551 22.2664Z" fill="white"/>
<path d="M60.625 25.6922C59.3199 25.6922 58.178 25.0397 57.6342 23.9521C57.3624 23.4084 57.1992 22.8646 57.1992 22.2121C57.1992 20.9614 57.7974 19.8195 58.8849 19.2213C59.4287 18.8951 60.0268 18.7319 60.6794 18.7319C61.3319 18.7319 61.93 18.8951 62.4738 19.2213C63.0176 19.5476 63.3982 19.9282 63.7245 20.472C63.9964 21.0158 64.1595 21.5595 64.1595 22.2121C64.1595 23.4627 63.5613 24.6047 62.4738 25.2028C61.8757 25.5291 61.2775 25.6922 60.625 25.6922ZM62.0388 23.7346C62.4194 23.2996 62.5826 22.8102 62.5826 22.2664C62.5826 21.6683 62.365 21.1789 62.0388 20.7983C61.6581 20.3632 61.2231 20.2001 60.625 20.2001C60.0812 20.2001 59.5918 20.4176 59.2112 20.7983C58.8305 21.2333 58.6674 21.7227 58.6674 22.2664C58.6674 23.4084 59.4831 24.3872 60.625 24.3872C61.2231 24.3328 61.6581 24.1153 62.0388 23.7346Z" fill="white"/>
<path d="M74.0578 22.2663C74.1121 24.1695 72.6983 25.7464 70.6864 25.692C69.8163 25.692 69.0551 25.4201 68.4569 24.8764C67.8588 24.3326 67.5325 23.6801 67.3694 22.8644H66.7712V25.5289H65.3574V18.9493H66.7712V21.6137H67.3694C67.5869 20.0368 68.8919 18.7861 70.6864 18.7861C72.6983 18.7861 74.1121 20.3631 74.0578 22.2663ZM70.6864 20.1456C70.0882 20.1456 69.6532 20.3631 69.327 20.7437C69.0007 21.1243 68.8376 21.6681 68.8376 22.2663C68.8376 22.8644 69.0007 23.3538 69.327 23.7888C69.6532 24.1695 70.1426 24.387 70.6864 24.387C71.2845 24.387 71.7195 24.1695 72.0458 23.7888C72.3721 23.4082 72.5352 22.8644 72.5352 22.2663C72.5896 21.07 71.8827 20.1456 70.6864 20.1456Z" fill="white"/>
<path d="M80.0925 23.7891C80.0925 24.3873 79.8206 24.8223 79.3313 25.2029C78.8419 25.5292 78.1893 25.7467 77.3737 25.7467C76.5036 25.7467 75.7424 25.5292 75.0898 25.1486V23.5716C75.7424 24.1698 76.4493 24.4417 77.2105 24.4417C78.0806 24.4417 78.6244 24.061 78.6244 23.5716C78.6244 23.0822 78.135 22.7016 77.2105 22.7016H76.6124V21.6141H77.2105C77.9175 21.6141 78.4068 21.2878 78.4068 20.8528C78.4068 20.4178 77.9718 20.0915 77.2105 20.0915C76.5036 20.0915 75.8511 20.3634 75.253 20.8528V19.439C75.9055 19.0583 76.6668 18.8408 77.4281 18.8408C79.005 18.8408 79.8207 19.6565 79.8207 20.6353C79.8207 21.2878 79.44 21.7772 78.6787 22.1034C79.6575 22.3753 80.0925 22.9735 80.0925 23.7891Z" fill="white"/>
<path d="M55.8406 30.8579V32.1086H54.0461V37.4375H52.6323V32.1086H50.8379V30.8579H55.8406Z" fill="white"/>
<path d="M61.3333 30.8579H62.8559L59.702 37.4375H58.2882L59.1038 35.7519L56.7656 30.8579H58.2338L59.8107 34.3924L61.3333 30.8579Z" fill="white"/>
<path d="M66.8241 30.8579C67.4766 30.8579 67.966 31.0754 68.401 31.4561C68.7816 31.8911 68.9991 32.3805 68.9991 33.033C68.9991 33.6855 68.7816 34.1749 68.401 34.6099C68.0204 35.0449 67.4766 35.2081 66.8241 35.2081H65.3015V37.4375H63.8877V30.8579H66.8241ZM66.6066 34.0118C67.2047 34.0118 67.531 33.5768 67.531 33.033C67.531 32.4348 67.1503 32.0542 66.6066 32.0542H65.3015V34.0118H66.6066Z" fill="white"/>
<path d="M70.1963 37.4375V30.8579H71.6101V35.045L74.764 30.8579H76.1234V37.4375H74.7096V33.2505L71.5557 37.4375H70.1963Z" fill="white"/>
<path d="M81.9963 30.8579H83.4101V37.4375H81.9963V34.7731H79.1687V37.4375H77.7549V30.8579H79.1687V33.5224H81.9963V30.8579Z" fill="white"/>
<path d="M90.8051 36.187H91.3489V38.9603H90.0982V37.4377H85.6937V38.9603H84.5518V36.187H85.5305C85.6937 35.752 85.8024 35.317 85.9112 34.7732C85.9656 34.2295 86.0199 33.5769 86.0199 32.7069V30.8037H90.9139V36.187H90.8051ZM87.325 32.7613C87.325 34.3926 87.2162 35.3714 86.89 36.2414H89.3913V32.1088H87.325V32.7613Z" fill="white"/>
<path d="M96.7317 30.8579H98.2543L95.1004 37.4375H93.6866L94.5023 35.7519L92.1641 30.8579H93.6322L95.2092 34.3924L96.7317 30.8579Z" fill="white"/>
<path d="M98.5268 34.1746C98.4724 32.3258 99.995 30.6945 102.007 30.7489C102.605 30.7489 103.149 30.8576 103.747 31.1295V32.5977C103.203 32.2714 102.659 32.1627 102.116 32.1627C101.518 32.1627 101.028 32.3802 100.593 32.7608C100.212 33.1415 99.995 33.6309 99.995 34.229C99.995 34.8272 100.212 35.3166 100.593 35.6972C100.974 36.0778 101.463 36.2953 102.116 36.2953C102.714 36.2953 103.258 36.1322 103.747 35.8603V37.3285C103.203 37.6004 102.605 37.7091 102.007 37.7091C99.995 37.6548 98.5268 36.0235 98.5268 34.1746Z" fill="white"/>
<path d="M109.783 30.8579V32.1086H107.989V37.4375H106.575V32.1086H104.78V30.8579H109.783Z" fill="white"/>
<path d="M113.862 30.8579C114.515 30.8579 115.004 31.0754 115.439 31.4561C115.82 31.8911 116.037 32.3805 116.037 33.033C116.037 33.6855 115.82 34.1749 115.439 34.6099C115.058 35.0449 114.515 35.2081 113.862 35.2081H112.34V37.4375H110.926V30.8579H113.862ZM113.645 34.0118C114.243 34.0118 114.569 33.5768 114.569 33.033C114.569 32.4348 114.188 32.0542 113.645 32.0542H112.34V34.0118H113.645Z" fill="white"/>
<path d="M117.178 37.4375V30.8579H118.592V35.045L121.745 30.8579H123.105V37.4375H121.691V33.2505L118.537 37.4375H117.178Z" fill="white"/>
<path d="M124.789 37.4375V30.8579H126.203V35.045L129.357 30.8579H130.716V37.4375H129.302V33.2505L126.148 37.4375H124.789Z" fill="white"/>
</svg>
