<svg width="1422" height="490" viewBox="0 0 1422 490" fill="none" xmlns="http://www.w3.org/2000/svg">
<g filter="url(#filter0_f_108_4611)">
<path d="M799.321 427.135C717.912 437.972 718.666 505.182 729.219 537.433C745.048 569.039 786.205 636.895 824.196 655.471C871.684 678.692 991.536 651.601 1005.1 612.9C1018.67 574.199 1111.39 566.459 1188.27 550.979C1265.16 535.498 1190.53 392.304 1143.05 347.798C1095.56 303.292 1011.89 347.798 955.354 378.759C898.82 409.72 901.081 413.59 799.321 427.135Z" fill="#205EE5"/>
<path d="M528.25 331.485C602.875 343.096 596.091 437.913 596.091 451.459C592.322 460.489 577.547 478.549 548.602 478.549C512.421 478.549 464.932 476.614 428.751 478.549C392.569 480.484 408.398 544.341 340.558 565.627C272.717 586.912 186.786 563.692 127.991 565.627C69.1958 567.562 94.0706 499.835 103.116 451.459C112.161 403.082 222.968 410.822 281.763 424.368C340.558 437.913 351.865 426.303 376.74 377.927C401.614 329.55 453.625 319.875 528.25 331.485Z" fill="#153F9A"/>
<path d="M1106.62 320.11C1103.31 285.611 1062.57 274.119 1042.61 272.686C1026.1 269.905 1018.97 242.047 1018.62 196.051C1018.26 150.056 927.068 142.922 872.107 109.448C817.145 75.9751 726.657 160.832 723.928 189.505C721.2 218.177 756.346 248.181 802.373 245.64C848.4 243.098 846.495 341.699 855.43 377.713C864.364 413.728 997.648 413.214 1068.13 399.054C1138.61 384.895 1110.76 363.235 1106.62 320.11Z" fill="#153F9A"/>
</g>
<defs>
<filter id="filter0_f_108_4611" x="-109.887" y="-98.2458" width="1531.3" height="962.308" filterUnits="userSpaceOnUse" color-interpolation-filters="sRGB">
<feFlood flood-opacity="0" result="BackgroundImageFix"/>
<feBlend mode="normal" in="SourceGraphic" in2="BackgroundImageFix" result="shape"/>
<feGaussianBlur stdDeviation="100" result="effect1_foregroundBlur_108_4611"/>
</filter>
</defs>
</svg>
