<svg width="449" height="381" viewBox="0 0 449 381" fill="none" xmlns="http://www.w3.org/2000/svg">
<g opacity="0.17" filter="url(#filter0_f_89_1351)">
<path d="M326.977 276.697C269.028 287.728 269.565 356.147 277.077 388.978C288.344 421.153 317.641 490.229 344.684 509.139C378.487 532.777 463.801 505.2 473.459 465.803C483.118 426.406 549.115 418.526 603.845 402.767C658.574 387.008 605.454 241.239 571.651 195.933C537.847 150.626 478.288 195.933 438.046 227.451C397.804 258.968 399.413 262.908 326.977 276.697Z" fill="#205EE5"/>
<path d="M134.021 179.327C185.59 190.801 182.545 282.105 182.323 300.042C182.311 300.99 182.189 301.916 181.881 302.813C178.618 312.339 168.143 329.035 148.508 329.035C122.753 329.035 88.9496 327.066 63.1945 329.035C37.4393 331.005 48.7072 396.01 0.416367 417.679C-47.8745 439.347 -109.043 415.709 -150.895 417.679C-192.747 419.649 -175.04 350.704 -168.602 301.457C-162.163 252.211 -83.2878 260.091 -41.4357 273.88C0.416367 287.669 8.46484 275.849 26.1715 226.603C43.8782 177.357 80.9011 167.508 134.021 179.327Z" fill="#153F9A"/>
<path d="M545.727 167.747C543.371 132.627 514.368 120.929 500.161 119.47C488.408 116.639 483.334 88.2797 483.082 41.457C482.83 -5.36579 417.913 -12.628 378.79 -46.7032C339.667 -80.7784 275.255 5.60487 273.312 34.7929C271.37 63.981 296.388 94.5244 329.152 91.9373C361.915 89.3503 360.559 189.724 366.919 226.386C373.279 263.048 468.154 262.525 518.326 248.111C568.497 233.697 548.672 211.647 545.727 167.747Z" fill="#153F9A"/>
</g>
<defs>
<filter id="filter0_f_89_1351" x="-377.857" y="-254.536" width="1205.3" height="972.421" filterUnits="userSpaceOnUse" color-interpolation-filters="sRGB">
<feFlood flood-opacity="0" result="BackgroundImageFix"/>
<feBlend mode="normal" in="SourceGraphic" in2="BackgroundImageFix" result="shape"/>
<feGaussianBlur stdDeviation="100" result="effect1_foregroundBlur_89_1351"/>
</filter>
</defs>
</svg>
