<svg width="647" height="381" viewBox="0 0 647 381" fill="none" xmlns="http://www.w3.org/2000/svg">
<g opacity="0.65" filter="url(#filter0_f_89_1337)">
<path d="M470.696 276.697C387.721 287.651 387.902 355.192 398.515 388.283C398.667 388.756 398.844 389.182 399.069 389.625C415.55 422.069 457.493 490.354 496.228 509.139C544.972 532.777 667.991 505.2 681.918 465.803C695.845 426.406 791.011 418.526 869.929 402.767C948.847 387.008 872.25 241.239 823.507 195.933C774.763 150.626 688.882 195.933 630.853 227.451C572.825 258.968 575.146 262.908 470.696 276.697Z" fill="#205EE5"/>
<path d="M192.46 179.327C266.074 190.686 262.509 280.28 262.12 299.48C262.093 300.812 261.846 302.1 261.234 303.283C256.271 312.878 241.202 329.035 213.35 329.035C176.212 329.035 127.468 327.066 90.3304 329.035C53.1924 331.005 69.4403 396.01 -0.19339 417.679C-69.8271 439.347 -158.03 415.709 -218.379 417.679C-278.728 419.649 -253.196 350.704 -243.911 301.457C-234.627 252.211 -120.892 260.091 -60.5426 273.88C-0.19339 287.669 11.4122 275.849 36.9446 226.603C62.477 177.357 115.863 167.508 192.46 179.327Z" fill="#153F9A"/>
<path d="M786.122 167.747C782.725 132.627 740.904 120.929 720.418 119.47C703.47 116.639 696.154 88.2797 695.79 41.457C695.427 -5.3658 601.82 -12.628 545.406 -46.7032C488.991 -80.7784 396.111 5.60487 393.311 34.7929C390.51 63.981 426.585 94.5244 473.829 91.9373C521.072 89.3503 519.117 189.724 528.288 226.386C537.459 263.048 674.265 262.525 746.611 248.111C818.957 233.697 790.369 211.647 786.122 167.747Z" fill="#153F9A"/>
</g>
<defs>
<filter id="filter0_f_89_1337" x="-457.258" y="-254.536" width="1561.21" height="972.421" filterUnits="userSpaceOnUse" color-interpolation-filters="sRGB">
<feFlood flood-opacity="0" result="BackgroundImageFix"/>
<feBlend mode="normal" in="SourceGraphic" in2="BackgroundImageFix" result="shape"/>
<feGaussianBlur stdDeviation="100" result="effect1_foregroundBlur_89_1337"/>
</filter>
</defs>
</svg>
