<svg width="646" height="380" viewBox="0 0 646 380" fill="none" xmlns="http://www.w3.org/2000/svg">
<g opacity="0.17" filter="url(#filter0_f_89_1344)">
<path d="M470.35 275.85C387.375 286.804 387.557 354.344 398.169 387.436C398.321 387.909 398.498 388.335 398.723 388.778C415.205 421.222 457.147 489.507 495.883 508.292C544.626 531.93 667.646 504.352 681.572 464.955C695.499 425.558 790.665 417.679 869.583 401.92C948.502 386.161 871.905 240.392 823.161 195.086C774.417 149.779 688.536 195.086 630.508 226.603C572.48 258.121 574.801 262.061 470.35 275.85Z" fill="#205EE5"/>
<path d="M192.114 178.48C265.729 189.839 262.163 279.433 261.774 298.633C261.747 299.965 261.501 301.253 260.889 302.436C255.926 312.031 240.856 328.188 213.004 328.188C175.866 328.188 127.123 326.219 89.9847 328.188C52.8467 330.158 69.0946 395.163 -0.539093 416.832C-70.1728 438.5 -158.375 414.862 -218.725 416.832C-279.074 418.802 -253.542 349.857 -244.257 300.611C-234.973 251.364 -121.238 259.244 -60.8883 273.033C-0.539093 286.822 11.0665 275.002 36.5989 225.756C62.1313 176.51 115.517 166.661 192.114 178.48Z" fill="#153F9A"/>
<path d="M785.776 166.9C782.379 131.78 740.558 120.082 720.073 118.623C703.124 115.791 695.808 87.4325 695.445 40.6098C695.081 -6.21297 601.474 -13.4752 545.06 -47.5504C488.646 -81.6255 395.766 4.7577 392.965 33.9458C390.164 63.1338 426.24 93.6772 473.483 91.0901C520.727 88.5031 518.771 188.877 527.942 225.539C537.113 262.201 673.919 261.678 746.265 247.264C818.611 232.85 790.023 210.8 785.776 166.9Z" fill="#153F9A"/>
</g>
<defs>
<filter id="filter0_f_89_1344" x="-457.604" y="-255.383" width="1561.21" height="972.421" filterUnits="userSpaceOnUse" color-interpolation-filters="sRGB">
<feFlood flood-opacity="0" result="BackgroundImageFix"/>
<feBlend mode="normal" in="SourceGraphic" in2="BackgroundImageFix" result="shape"/>
<feGaussianBlur stdDeviation="100" result="effect1_foregroundBlur_89_1344"/>
</filter>
</defs>
</svg>
