<svg width="617" height="381" viewBox="0 0 617 381" fill="none" xmlns="http://www.w3.org/2000/svg">
<g opacity="0.65" filter="url(#filter0_f_89_1505)">
<path d="M448.615 276.366C369.458 287.322 369.648 354.889 379.776 387.973C379.916 388.432 380.081 388.846 380.29 389.278C396.005 421.716 436.016 490.02 472.967 508.808C519.458 532.446 636.793 504.868 650.076 465.471C663.359 426.074 754.127 418.195 829.398 402.436C904.67 386.677 831.612 240.908 785.121 195.602C738.63 150.295 656.718 195.602 601.371 227.119C546.025 258.637 548.238 262.577 448.615 276.366Z" fill="#205EE5"/>
<path d="M183.236 178.996C253.548 190.371 250.038 280.203 249.675 299.23C249.651 300.506 249.426 301.742 248.864 302.888C244.163 312.474 229.785 328.704 203.16 328.704C167.739 328.704 121.248 326.734 85.826 328.704C50.4042 330.674 65.9013 395.679 -0.514465 417.348C-66.9302 439.016 -151.057 415.378 -208.617 417.348C-266.177 419.317 -241.825 350.373 -232.97 301.126C-224.114 251.88 -115.635 259.76 -58.0748 273.549C-0.514465 287.337 10.5548 275.518 34.9073 226.272C59.2597 177.026 110.178 167.177 183.236 178.996Z" fill="#153F9A"/>
<path d="M749.463 167.416C746.222 132.296 706.334 120.598 686.795 119.139C670.63 116.308 663.652 87.9487 663.306 41.1259C662.959 -5.69684 573.678 -12.9591 519.871 -47.0342C466.063 -81.1094 377.475 5.27382 374.804 34.4619C372.133 63.6499 406.541 94.1933 451.601 91.6063C496.662 89.0192 494.797 189.393 503.544 226.055C512.291 262.717 642.775 262.194 711.778 247.78C780.78 233.366 753.513 211.316 749.463 167.416Z" fill="#153F9A"/>
</g>
<defs>
<filter id="filter0_f_89_1505" x="-445.699" y="-254.867" width="1507.55" height="972.421" filterUnits="userSpaceOnUse" color-interpolation-filters="sRGB">
<feFlood flood-opacity="0" result="BackgroundImageFix"/>
<feBlend mode="normal" in="SourceGraphic" in2="BackgroundImageFix" result="shape"/>
<feGaussianBlur stdDeviation="100" result="effect1_foregroundBlur_89_1505"/>
</filter>
</defs>
</svg>
