<svg width="261" height="261" viewBox="0 0 261 261" fill="none" xmlns="http://www.w3.org/2000/svg">
<g opacity="0.45" filter="url(#filter0_f_2037_4)">
<path d="M153.054 146.141C115.636 154.538 115.983 206.622 120.833 231.614C128.109 256.107 147.025 308.69 164.487 323.086C186.314 341.08 241.401 320.087 247.637 290.096C253.873 260.105 296.488 254.107 331.827 242.111C367.166 230.115 332.866 119.149 311.039 84.6595C289.212 50.1702 250.755 84.6595 224.771 108.652C198.786 132.645 199.826 135.644 153.054 146.141Z" fill="#205EE5"/>
<path d="M28.4613 72.0183C61.6502 80.7242 59.8054 149.802 59.6511 163.776C59.6422 164.586 59.5532 165.385 59.3233 166.162C57.17 173.436 50.4126 185.983 37.8158 185.983C21.1857 185.983 -0.641205 184.484 -17.2712 185.983C-33.9013 187.483 -26.6256 236.967 -57.8069 253.462C-88.9883 269.957 -128.485 251.963 -155.508 253.462C-182.532 254.962 -171.099 202.478 -166.942 164.99C-162.784 127.501 -111.855 133.499 -84.8308 143.996C-57.8069 154.493 -52.6101 145.496 -41.1769 108.007C-29.7438 70.5188 -5.83809 63.0211 28.4613 72.0183Z" fill="#153F9A"/>
<path d="M294.298 63.2033C292.777 36.4683 274.05 27.5631 264.877 26.4524C257.288 24.2971 254.011 2.70909 253.849 -32.9345C253.686 -68.578 211.77 -74.1063 186.508 -100.046C161.246 -125.985 119.655 -60.2267 118.401 -38.0074C117.147 -15.7882 133.301 7.46277 154.456 5.49341C175.611 3.52405 174.736 79.9328 178.843 107.842C182.949 135.751 244.21 135.352 276.606 124.38C309.001 113.407 296.2 96.622 294.298 63.2033Z" fill="#153F9A"/>
</g>
<g opacity="0.45" filter="url(#filter1_f_2037_4)">
<path d="M220.152 156.679C175.033 166.805 175.451 229.61 181.299 259.747C190.073 289.281 212.883 352.688 233.939 370.047C260.259 391.746 326.685 366.431 334.205 330.267C341.725 294.103 393.111 286.87 435.724 272.404C478.337 257.939 436.978 124.131 410.658 82.5427C384.338 40.954 337.965 82.5427 306.632 111.474C275.299 140.405 276.552 144.022 220.152 156.679Z" fill="#205EE5"/>
<path d="M69.9136 67.2995C110.151 77.8544 107.684 162 107.521 178.213C107.512 179.023 107.423 179.802 107.199 180.58C104.682 189.312 96.5238 204.723 81.1935 204.723C61.1403 204.723 34.8205 202.915 14.7673 204.723C-5.28587 206.531 3.48741 266.202 -34.1123 286.092C-71.712 305.982 -119.338 284.284 -151.925 286.092C-184.511 287.9 -170.725 224.613 -165.711 179.408C-160.698 134.203 -99.2852 141.436 -66.6987 154.093C-34.1123 166.751 -27.8457 155.902 -14.0591 110.696C-0.272552 65.4913 28.5539 56.4503 69.9136 67.2995Z" fill="#153F9A"/>
<path d="M390.471 56.6699C388.637 24.4317 366.055 13.6935 354.993 12.3542C345.842 9.7553 341.891 -16.2765 341.695 -59.257C341.499 -102.237 290.955 -108.904 260.493 -140.183C230.031 -171.462 179.879 -92.167 178.367 -65.3741C176.855 -38.5813 196.334 -10.5443 221.844 -12.919C247.354 -15.2938 246.298 76.8431 251.25 110.497C256.202 144.151 330.072 143.67 369.136 130.439C408.201 117.208 392.764 96.9676 390.471 56.6699Z" fill="#153F9A"/>
</g>
<defs>
<filter id="filter0_f_2037_4" x="-372.918" y="-306.008" width="919.979" height="835.752" filterUnits="userSpaceOnUse" color-interpolation-filters="sRGB">
<feFlood flood-opacity="0" result="BackgroundImageFix"/>
<feBlend mode="normal" in="SourceGraphic" in2="BackgroundImageFix" result="shape"/>
<feGaussianBlur stdDeviation="100" result="effect1_foregroundBlur_2037_4"/>
</filter>
<filter id="filter1_f_2037_4" x="-372.918" y="-347.373" width="1027.01" height="925.448" filterUnits="userSpaceOnUse" color-interpolation-filters="sRGB">
<feFlood flood-opacity="0" result="BackgroundImageFix"/>
<feBlend mode="normal" in="SourceGraphic" in2="BackgroundImageFix" result="shape"/>
<feGaussianBlur stdDeviation="100" result="effect1_foregroundBlur_2037_4"/>
</filter>
</defs>
</svg>
