<svg width="584" height="1570" viewBox="0 0 584 1570" fill="none" xmlns="http://www.w3.org/2000/svg">
<g opacity="0.47" filter="url(#filter0_f_108_3398)">
<path d="M632.445 636.603C646.844 720.758 736.15 719.978 779.004 709.069C821 692.706 911.163 650.161 935.847 610.889C966.701 561.799 930.705 437.905 879.28 423.879C827.856 409.854 817.572 314.011 797.002 234.532C776.432 155.053 586.163 232.194 527.026 281.285C467.888 330.375 527.026 416.867 568.165 475.307C609.304 533.748 614.446 531.41 632.445 636.603Z" fill="#205EE5"/>
<path d="M505.35 916.817C520.777 839.676 646.766 846.688 664.764 846.688C676.763 850.584 700.761 865.857 700.761 895.779C700.761 933.181 698.19 982.271 700.761 1019.67C703.332 1057.07 788.182 1040.71 816.465 1110.84C844.749 1180.97 813.894 1269.8 816.465 1330.58C819.037 1391.35 729.044 1365.64 664.764 1356.29C600.484 1346.94 610.769 1232.4 628.767 1171.62C646.766 1110.84 631.339 1099.15 567.059 1073.44C502.778 1047.72 489.922 993.959 505.35 916.817Z" fill="#205EE5"/>
<path d="M490.236 318.935C444.394 322.356 429.125 364.474 427.22 385.105C423.525 402.174 386.508 409.542 325.392 409.908C264.275 410.274 254.796 504.547 210.318 561.362C165.841 618.177 278.595 711.718 316.693 714.538C354.792 717.359 394.659 681.027 391.283 633.448C387.906 585.869 518.921 587.838 566.776 578.602C614.63 569.365 613.947 431.587 595.133 358.727C576.318 285.867 547.538 314.658 490.236 318.935Z" fill="#205EE5"/>
</g>
<defs>
<filter id="filter0_f_108_3398" x="0.0947266" y="0.268555" width="1147.17" height="1569.46" filterUnits="userSpaceOnUse" color-interpolation-filters="sRGB">
<feFlood flood-opacity="0" result="BackgroundImageFix"/>
<feBlend mode="normal" in="SourceGraphic" in2="BackgroundImageFix" result="shape"/>
<feGaussianBlur stdDeviation="100" result="effect1_foregroundBlur_108_3398"/>
</filter>
</defs>
</svg>
