<svg width="137" height="50" viewBox="0 0 137 50" fill="none" xmlns="http://www.w3.org/2000/svg">
<path d="M69.954 37.5442C70.6459 37.5387 71.3377 37.5388 72.0296 37.5171C72.0999 37.5171 72.1647 37.5117 72.2296 37.5387C72.2512 37.5496 72.2729 37.555 72.2891 37.5658C72.3431 37.5983 72.3647 37.6524 72.3377 37.712C72.3215 37.7499 72.2999 37.7877 72.2729 37.8202C72.1864 37.9339 72.0945 38.053 72.0026 38.1667C71.7648 38.4698 71.581 38.7946 71.462 39.1626C71.4026 39.3467 71.3648 39.5361 71.3377 39.7256C71.3053 39.9529 71.2783 40.1803 71.2404 40.4076C71.2134 40.5754 71.1756 40.7486 71.1269 40.911C70.9161 41.7067 70.5756 42.4429 70.0891 43.1087C69.5107 43.9044 68.7756 44.5161 67.8999 44.9599C67.4621 45.1819 66.9972 45.3551 66.5324 45.5012C66.1324 45.6257 65.7324 45.734 65.3216 45.8098C65.0621 45.8585 64.8027 45.8964 64.5432 45.918C64.2946 45.9397 64.0405 45.9559 63.7919 45.9559C63.3649 45.9559 62.9433 45.9288 62.5216 45.8693C61.6676 45.7502 60.8406 45.5283 60.046 45.1764C58.9433 44.6893 58.0028 43.9802 57.2082 43.0708C56.392 42.1344 55.8406 41.0572 55.5163 39.8555C55.4082 39.4604 55.3379 39.0544 55.2839 38.6484C55.2136 38.1125 55.1866 37.5766 55.2028 37.0408C55.2352 36.0772 55.4082 35.1354 55.7596 34.2368C55.9704 33.6901 56.2406 33.1759 56.5704 32.6941C56.7758 32.391 56.9812 32.0933 57.2136 31.8118C58.0947 30.7563 59.1757 29.9985 60.4568 29.5113C60.9108 29.3381 61.3757 29.2136 61.8514 29.1053C62.1811 29.0296 62.5108 28.97 62.8514 28.9321C63.2784 28.8834 63.7054 28.8618 64.1324 28.8942C64.5054 28.9213 64.8784 28.9863 65.2459 29.0458C65.754 29.1324 66.2513 29.2623 66.7486 29.3868C67.1378 29.4843 67.527 29.5113 67.9216 29.4843C68.2513 29.4572 68.5648 29.3868 68.8729 29.2677C68.9162 29.2515 68.954 29.2298 68.9918 29.2028C69.0675 29.1541 69.1378 29.0945 69.208 29.0404C69.2459 29.0133 69.2837 28.9863 69.3215 28.9646C69.354 28.9484 69.3918 28.9321 69.4242 28.9267C69.5323 28.9051 69.5918 28.9484 69.5972 29.0566C69.6026 29.1162 69.5972 29.1757 69.5972 29.2353C69.5972 29.9173 69.5972 30.6047 69.6026 31.2868C69.6026 31.9472 69.608 32.613 69.6134 33.2733C69.6134 33.3437 69.608 33.4141 69.5972 33.4844C69.5702 33.636 69.4945 33.6685 69.354 33.6035C69.2837 33.571 69.2242 33.5169 69.1648 33.4628C68.8891 33.203 68.6134 32.9431 68.327 32.6887C67.9702 32.3694 67.6081 32.0608 67.2297 31.7685C66.8243 31.46 66.3918 31.2002 65.9108 31.0215C65.5973 30.9025 65.2729 30.8267 64.9378 30.7834C64.5811 30.7347 64.2243 30.7238 63.8676 30.7401C62.646 30.7996 61.5325 31.1677 60.5541 31.9093C59.9703 32.3531 59.5 32.9053 59.1325 33.5386C58.8082 34.0907 58.5757 34.6807 58.4136 35.2978C58.3055 35.7038 58.2298 36.1097 58.1811 36.5265C58.1595 36.7268 58.1325 36.9217 58.1217 37.122C58.1001 37.4251 58.1271 37.7282 58.1595 38.0313C58.1974 38.4157 58.2622 38.7891 58.3433 39.1626C58.5271 39.9583 58.819 40.7162 59.2568 41.4036C59.9757 42.5295 60.9649 43.2927 62.2352 43.7041C62.5973 43.8232 62.9649 43.9152 63.3378 43.9694C63.7594 44.0289 64.1811 44.056 64.6081 44.0289C64.8675 44.0127 65.127 43.991 65.3811 43.9531C65.8892 43.8773 66.381 43.7474 66.8405 43.5201C67.6945 43.0979 68.2567 42.4267 68.5486 41.5227C68.6675 41.1492 68.7378 40.7703 68.7432 40.3806C68.754 39.9475 68.6891 39.5253 68.527 39.1247C68.4459 38.9191 68.3324 38.7242 68.2026 38.5456C68.0405 38.3236 67.8783 38.1017 67.7162 37.8852C67.6675 37.8202 67.6243 37.7553 67.6189 37.6741C67.6189 37.6578 67.6135 37.6416 67.6135 37.6308C67.6189 37.5766 67.6459 37.5387 67.6999 37.5279C67.727 37.5225 67.754 37.5225 67.781 37.5225C68.2297 37.5117 68.6729 37.4954 69.1215 37.5063C69.408 37.5279 69.6783 37.5387 69.954 37.5442ZM104.24 35.6009C104.018 34.3559 103.559 33.2138 102.802 32.207C101.229 30.1013 99.0833 29.062 96.4942 28.8888C95.5915 28.8293 94.6996 28.9267 93.8185 29.1378C91.2726 29.7441 89.4132 31.2218 88.2672 33.5819C87.397 35.3736 87.2024 37.2573 87.5591 39.2059C88.1213 42.2534 90.251 44.5107 92.8401 45.4092C94.7374 46.0696 96.6509 46.1291 98.5698 45.5445C101.083 44.7759 102.813 43.1466 103.77 40.6999C104.202 39.6011 104.391 38.4481 104.375 37.2681C104.381 36.716 104.343 36.1584 104.24 35.6009ZM100.575 40.9543C100.402 41.5931 100.181 42.2047 99.8401 42.7731C99.5914 43.1953 99.2887 43.5742 98.9266 43.9044C98.1428 44.6027 97.2185 44.9112 96.1807 44.8841C94.8996 44.8517 93.8347 44.3374 92.9591 43.401C92.4239 42.8272 92.0239 42.1614 91.7158 41.4415C91.2726 40.4022 91.0294 39.3142 90.9375 38.1937C90.8726 37.3926 90.8726 36.5915 90.9321 35.785C90.9969 34.881 91.1861 34.0041 91.5104 33.1597C91.7645 32.4939 92.1104 31.8822 92.5861 31.3517C93.0456 30.8375 93.5915 30.4261 94.2455 30.1934C95.5428 29.7333 96.7806 29.8902 97.9482 30.5939C98.4779 30.9133 98.9049 31.3355 99.2779 31.8281C99.7968 32.5155 100.154 33.2842 100.408 34.1069C100.672 34.9676 100.84 35.8553 100.878 36.7593C100.894 37.149 100.91 37.5388 100.916 37.7607C100.91 38.9407 100.84 39.9583 100.575 40.9543ZM136.348 32.6833C135.915 31.1081 134.494 29.5655 132.796 29.0837C132.277 28.9375 131.753 28.8564 131.207 28.8618C130.083 28.8672 128.964 28.8618 127.84 28.8618C126.645 28.8618 125.451 28.8618 124.256 28.8618C124.11 28.8618 123.964 28.8672 123.818 28.8834C123.797 28.8888 123.748 28.9754 123.759 28.9971C123.883 29.2082 124.013 29.4085 124.148 29.6142C124.542 30.215 124.807 30.8592 124.921 31.5737C124.98 31.9363 124.996 32.299 124.996 32.6671V42.4158C124.996 42.5349 124.996 42.6594 124.996 42.7839C124.975 43.6879 124.71 44.5107 124.153 45.2306C124.018 45.4038 123.878 45.577 123.753 45.7502C123.732 45.7827 123.721 45.8477 123.732 45.8855C123.742 45.918 123.786 45.9559 123.824 45.9722C123.867 45.9884 123.921 45.983 123.969 45.983H129.164C129.186 45.983 129.213 45.9884 129.234 45.9776C129.278 45.9613 129.315 45.9451 129.353 45.9234C129.396 45.8964 129.38 45.8043 129.321 45.7286C129.245 45.6311 129.169 45.5337 129.088 45.4417C128.369 44.6081 128.05 43.6392 128.083 42.5403C128.105 41.7338 128.088 40.9273 128.088 40.1207C128.088 39.4279 128.045 39.4604 128.775 39.4604C129.58 39.4604 130.386 39.4712 131.191 39.4549C131.58 39.4495 131.975 39.4387 132.353 39.3575C135.088 38.7837 137.245 35.9528 136.348 32.6833ZM132.569 36.5482C132.018 37.1977 131.337 37.6524 130.499 37.8473C130.31 37.8906 130.115 37.9339 129.926 37.9393C129.391 37.9555 128.856 37.9501 128.315 37.9501C128.175 37.9501 128.11 37.8689 128.105 37.712C128.099 37.6145 128.099 37.5171 128.099 37.4197V32.2936C128.099 32.1474 128.105 32.0013 128.099 31.8551C128.078 31.1677 128.667 30.3449 129.661 30.3449C130.326 30.3449 130.964 30.5019 131.542 30.8591C132.38 31.3788 132.996 32.0879 133.267 33.046C133.634 34.3289 133.445 35.5143 132.569 36.5482ZM106.337 35.8228C106.337 34.7186 106.337 33.6143 106.337 32.5047C106.337 31.3626 106.024 30.3179 105.343 29.3922C105.267 29.2894 105.202 29.1757 105.137 29.062C105.083 28.9646 105.126 28.8888 105.24 28.878C105.272 28.8726 105.305 28.8726 105.332 28.8726C106.975 28.8672 108.624 28.8672 110.267 28.8618C110.553 28.8618 110.699 28.8672 110.494 29.2298C110.197 29.7441 109.91 30.2691 109.737 30.8375C109.537 31.4871 109.424 32.1474 109.424 32.8295C109.424 34.9459 109.408 37.0624 109.429 39.1843C109.451 41.2683 110.964 43.0113 112.97 43.3577C115.159 43.7366 117.332 42.3292 117.834 40.0287C117.921 39.6336 117.937 39.2222 117.943 38.8162C117.953 36.8405 117.948 34.8702 117.943 32.8944C117.937 31.6982 117.651 30.5777 117.045 29.5384C116.959 29.3922 116.878 29.2407 116.807 29.0891C116.743 28.9538 116.78 28.8834 116.926 28.8726C117.002 28.8672 117.078 28.8618 117.153 28.8618C118.78 28.8618 120.407 28.8672 122.034 28.8726C122.261 28.8726 122.305 28.943 122.191 29.1378C122.126 29.2515 122.045 29.3598 121.969 29.4734C121.321 30.3828 121.029 31.4004 121.034 32.5101C121.04 34.7619 121.061 37.0137 121.04 39.2655C121.007 42.8651 118.38 45.0574 116.272 45.6582C115.586 45.8531 114.883 45.9126 114.18 45.9343C113.343 45.9613 112.51 45.9397 111.683 45.7935C110.564 45.5932 109.591 45.0844 108.732 44.3483C107.505 43.2981 106.716 41.9882 106.445 40.3914C106.375 39.9692 106.343 39.5361 106.332 39.1085C106.316 38.0097 106.326 36.9163 106.326 35.8174C106.326 35.8228 106.332 35.8228 106.337 35.8228ZM77.6728 28.878C78.6836 28.878 79.6944 28.8726 80.7052 28.878C80.9592 28.878 81.2133 28.8942 81.4619 28.9267C82.3592 29.0404 83.17 29.376 83.8889 29.9227C84.9808 30.7455 85.6727 31.8281 85.9375 33.1705C86.2348 34.6807 85.8132 36.4183 84.6943 37.6632C84.116 38.3074 83.4295 38.7946 82.6187 39.1085C82.5214 39.1464 82.4241 39.1843 82.3268 39.2222C82.2943 39.233 82.2619 39.2492 82.2349 39.2709C82.1916 39.298 82.1808 39.3413 82.2025 39.39C82.2241 39.4333 82.2511 39.4766 82.2781 39.5145C82.9268 40.4672 83.57 41.4144 84.2186 42.3671C84.8457 43.2873 85.4781 44.2075 86.1051 45.1331C86.2348 45.3226 86.3537 45.5175 86.4781 45.7123C86.4889 45.7286 86.4997 45.7394 86.5051 45.7556C86.5483 45.8477 86.4997 45.9343 86.4024 45.9505C86.3483 45.9559 86.2997 45.9559 86.2456 45.9559C84.97 45.9559 83.6943 45.9559 82.4187 45.9559C82.3592 45.9559 82.2943 45.9505 82.2349 45.9397C82.17 45.9234 82.143 45.891 82.143 45.8206C82.143 45.7881 82.1484 45.7502 82.1538 45.7177C82.2025 45.5229 82.2565 45.328 82.3052 45.1331C82.4079 44.6785 82.3538 44.24 82.17 43.8178C82.116 43.6987 82.0565 43.5796 81.9808 43.4714C81.3863 42.5945 80.7863 41.7176 80.1917 40.8407C80.0133 40.5808 79.8349 40.3156 79.6133 40.0883C79.4349 39.9042 79.2349 39.7418 79.0025 39.6227C78.7701 39.5037 78.5268 39.4495 78.2674 39.4604C78.1106 39.4658 77.9539 39.4604 77.7971 39.4604C77.662 39.4604 77.6349 39.4874 77.6349 39.6173C77.6349 40.4401 77.6404 41.2629 77.6458 42.0911C77.6458 42.5187 77.6512 42.9463 77.6512 43.3739C77.6512 43.5526 77.6782 43.7204 77.7268 43.8882C77.8566 44.332 78.062 44.738 78.3376 45.1115C78.4836 45.3064 78.6295 45.5012 78.7755 45.6961C78.8133 45.7502 78.8782 45.7989 78.8403 45.8801C78.7971 45.9667 78.716 45.9505 78.6403 45.9559C78.262 45.9559 77.8836 45.9559 77.5052 45.9613C76.6944 45.9667 75.889 45.9722 75.0782 45.9722C74.7701 45.9722 74.462 45.9613 74.1485 45.9559C74.0944 45.9559 74.0458 45.9451 73.9972 45.9288C73.8999 45.9018 73.8728 45.8368 73.9161 45.7448C73.9431 45.6907 73.9755 45.642 74.0134 45.5987C74.1269 45.4525 74.2458 45.3009 74.3593 45.1548C74.8026 44.5973 75.0025 43.9639 75.008 43.2603C75.0134 42.6432 75.0134 42.0315 75.0188 41.4144C75.0242 40.3102 75.0296 39.2114 75.035 38.1071C75.0404 37.241 75.0458 36.375 75.0458 35.5089C75.0458 34.5995 75.035 33.6847 75.0242 32.7753C75.0188 32.364 75.0188 31.9526 75.008 31.5466C74.9917 30.9728 74.8512 30.4261 74.5701 29.9227C74.435 29.6791 74.2728 29.4626 74.089 29.2569C74.0512 29.2136 74.0134 29.1757 73.9863 29.127C73.9161 29.0079 73.9701 28.9051 74.1053 28.8834C74.1485 28.878 74.1971 28.878 74.2404 28.878C75.3971 28.878 76.5323 28.878 77.6728 28.878ZM78.6782 37.9501C78.8511 37.9501 79.0241 37.9447 79.1971 37.9501C79.6998 37.9556 80.1809 37.8473 80.6403 37.6416C81.3592 37.3222 81.916 36.808 82.3484 36.1584C82.6403 35.7254 82.8133 35.2437 82.8835 34.7294C82.9376 34.3343 82.9214 33.9391 82.8565 33.544C82.7646 32.981 82.57 32.456 82.2403 31.9905C81.8997 31.5033 81.4619 31.1244 80.9538 30.8267C80.3592 30.4748 79.7106 30.3341 79.0241 30.3774C78.3539 30.4153 77.6566 31.0432 77.662 31.8497C77.6728 33.7497 77.662 35.6496 77.6674 37.5442C77.6674 37.6199 77.6674 37.6957 77.6728 37.7715C77.6836 37.8852 77.7431 37.9393 77.8512 37.9501C77.8836 37.9556 77.9214 37.9556 77.9539 37.9556C78.1971 37.9501 78.4403 37.9501 78.6782 37.9501Z" fill="url(#paint0_linear_122_43)"/>
<path d="M49.8336 25.1343C49.8336 25.3823 49.8336 25.6304 49.8259 25.8784C49.8181 26.0645 49.8104 26.2505 49.7949 26.4366C49.7872 26.5296 49.7794 26.6226 49.7794 26.7156C49.764 26.9404 49.7485 27.173 49.7252 27.3978C49.702 27.6691 49.6633 27.9326 49.6401 28.204C49.6246 28.39 49.5937 28.576 49.5627 28.7543C49.5085 29.0566 49.4621 29.3667 49.4079 29.669C49.3305 30.0954 49.2376 30.5217 49.1369 30.9403C48.8273 32.1961 48.4248 33.4286 47.9216 34.6224C46.9231 36.9944 45.5762 39.1571 43.8964 41.1105C42.0154 43.2965 39.817 45.1027 37.309 46.5135C35.6835 47.436 33.9728 48.1569 32.1769 48.6762C31.5731 48.8545 30.7603 49.0561 30.1643 49.1723C29.816 49.2421 29.4754 49.3041 29.127 49.3584C28.9258 49.4049 28.7168 49.4126 28.5155 49.4514C28.2601 49.4669 28.0046 49.5212 27.7414 49.5367C27.7027 49.5367 27.6563 49.5367 27.6176 49.5444C27.2073 49.6064 26.7893 49.5987 26.379 49.6374C26.2784 49.6452 26.17 49.6452 26.0694 49.6529C25.5508 49.6607 25.0321 49.6684 24.5213 49.6529C24.3432 49.6452 24.1729 49.6374 23.9949 49.6219C23.902 49.6142 23.8091 49.6064 23.7162 49.6064C23.4917 49.5987 23.2595 49.5832 23.035 49.5522C22.9731 49.5444 22.9112 49.5444 22.8492 49.5367C22.7331 49.5289 22.6248 49.5134 22.5087 49.4979C22.4699 49.4902 22.4235 49.4824 22.3848 49.4824C21.8894 49.4281 21.6726 49.3894 21.1308 49.2964C19.66 49.0483 18.228 48.6607 16.8269 48.1414C14.6905 47.3507 12.7011 46.2809 10.8665 44.9321C7.82439 42.6997 5.40926 39.9168 3.63662 36.5836C2.7774 34.9712 2.11169 33.2813 1.63176 31.5139C1.47694 30.9326 1.33761 30.3512 1.22924 29.762C1.15957 29.3822 1.0899 29.0101 1.03572 28.6303C0.989275 28.3125 0.958311 27.9947 0.911867 27.6768C0.865422 27.328 0.857681 26.9714 0.818977 26.6226C0.811237 26.5296 0.803496 26.4366 0.803496 26.3435C0.772533 25.5141 0.772533 24.6847 0.803496 23.863C0.811237 23.7467 0.818977 23.6382 0.826718 23.5219C0.834459 23.3746 0.84994 23.2351 0.857681 23.0878C0.865422 22.956 0.880904 22.8165 0.896385 22.6847C0.896385 22.6537 0.904126 22.6227 0.904126 22.5917C0.919608 22.3359 0.958311 22.0801 0.989275 21.8243C1.02024 21.6072 1.0512 21.3902 1.08216 21.1809C1.12087 20.9328 1.16731 20.6925 1.21376 20.4445C1.30665 19.9329 1.42276 19.429 1.55435 18.9329C2.01106 17.1733 2.65354 15.4834 3.48955 13.871C4.91385 11.1192 6.78712 8.7239 9.1171 6.66969C10.9904 5.01858 13.0726 3.67753 15.3562 2.66206C16.6179 2.10393 17.9106 1.64658 19.2498 1.31326C19.7607 1.18148 20.2716 1.07295 20.7902 0.972182C21.0921 0.91792 21.4017 0.863658 21.7113 0.817148C21.9358 0.786141 22.1603 0.762886 22.3848 0.724128C22.4467 0.716376 22.5087 0.708624 22.5706 0.700872C22.6944 0.685369 22.8183 0.677617 22.9421 0.662114C22.9731 0.662114 23.0041 0.654362 23.035 0.654362C23.4685 0.631107 23.902 0.584597 24.3355 0.576845C25.0399 0.561342 25.7443 0.561342 26.4487 0.584597C26.6268 0.592348 26.797 0.6001 26.9751 0.615604C27.068 0.623355 27.1609 0.631107 27.2538 0.638859C27.4318 0.64661 27.6021 0.654362 27.7801 0.685369C27.842 0.693121 27.904 0.700872 27.9659 0.700872C28.082 0.708624 28.1904 0.716376 28.3065 0.739631C28.3375 0.747383 28.3684 0.747383 28.3994 0.755134C28.6858 0.786141 28.9722 0.832652 29.2586 0.879162C29.545 0.925672 29.8314 0.972182 30.1101 1.0342C30.6752 1.15047 31.2403 1.28225 31.7976 1.43729C33.5702 1.92564 35.2655 2.60004 36.8833 3.47599C39.012 4.62324 40.9317 6.04955 42.6347 7.76268C44.3918 9.51457 45.8471 11.4913 47.0082 13.685C47.8907 15.3439 48.5641 17.088 49.0363 18.9096C49.1834 19.46 49.3072 20.0181 49.4079 20.5763C49.4775 20.9639 49.5472 21.3514 49.5937 21.739C49.6401 22.0879 49.6788 22.4367 49.7175 22.7855C49.7639 23.1963 49.7794 23.6149 49.8026 24.0258C49.8259 24.3358 49.8181 24.6459 49.8259 24.956C49.8336 25.0102 49.8336 25.0723 49.8336 25.1343ZM30.6674 3.96434C30.6674 3.95659 30.6752 3.96434 30.6674 3.96434C30.652 4.01085 30.652 4.05736 30.6829 4.10387C30.7061 4.13488 30.7371 4.16589 30.7603 4.20465C30.9074 4.40619 31.0545 4.60774 31.1861 4.81703C31.7511 5.73949 32.1304 6.72395 32.2311 7.80919C32.2466 7.98748 32.262 8.15802 32.262 8.33631C32.262 8.57661 32.2466 8.80917 32.2233 9.04947C32.1846 9.38279 32.1227 9.70061 32.0376 10.0262C31.9292 10.4138 31.7898 10.7936 31.6196 11.1579C31.5576 11.2897 31.4957 11.4215 31.4415 11.5533C31.039 12.4602 30.4739 13.2586 29.754 13.9486C29.576 14.1191 29.3979 14.2974 29.2354 14.4834C29.1889 14.5377 29.1348 14.5919 29.0883 14.6385C29.0651 14.6617 29.0419 14.685 29.0264 14.7082C28.9645 14.7702 28.918 14.7935 28.8406 14.7237C28.8096 14.6927 28.7787 14.6695 28.7477 14.6385C27.9736 13.8865 27.1996 13.1424 26.4332 12.3905C26.4023 12.3594 26.379 12.3284 26.3481 12.2974C26.3326 12.2819 26.3326 12.2277 26.3481 12.2122C26.379 12.1734 26.4177 12.1346 26.4487 12.0959C26.6268 11.8943 26.8125 11.7006 26.9906 11.499C27.246 11.2122 27.486 10.9176 27.7105 10.5998C27.8575 10.3983 27.9891 10.189 28.113 9.97192C28.1672 9.87115 28.2136 9.77038 28.2446 9.66185C28.3142 9.44481 28.3529 9.22001 28.3839 8.99521C28.4381 8.63863 28.4071 8.2898 28.3375 7.94872C28.1981 7.29758 27.904 6.72395 27.4782 6.21234C27.2847 5.97979 27.0602 5.77824 26.8203 5.60771C26.4255 5.32865 25.9843 5.15036 25.5043 5.08834C25.3882 5.07284 25.2799 5.06509 25.1637 5.08059C24.947 5.1116 24.738 5.15036 24.529 5.22787C24.142 5.3674 23.8014 5.5767 23.4995 5.84801C23.0737 6.22784 22.7564 6.67744 22.5241 7.19681C22.3771 7.53013 22.2764 7.87896 22.23 8.23554C22.1835 8.63863 22.2145 9.04172 22.3074 9.43705C22.3693 9.69286 22.4622 9.92541 22.6093 10.1502C22.7951 10.4448 23.0041 10.7316 23.2208 11.0107C23.4995 11.3595 23.7936 11.6928 24.0955 12.0184C24.4748 12.4215 24.8541 12.809 25.2489 13.1889C27.8111 15.7004 30.4197 18.1732 33.0439 20.6228C34.2746 21.77 35.5132 22.925 36.7439 24.08C37.5877 24.8707 38.4237 25.6769 39.2442 26.4986C39.7087 26.9714 40.1731 27.4443 40.6221 27.9326C41.1872 28.5528 41.729 29.1884 42.2399 29.8551C42.8746 30.7 43.4475 31.5914 43.9197 32.5294C44.237 33.1495 44.508 33.7852 44.7479 34.4363C44.7711 34.5061 44.7944 34.5759 44.8331 34.6379C44.8408 34.6534 44.864 34.6611 44.8872 34.6456C44.9414 34.6069 44.9569 34.5449 44.9801 34.4906C45.5917 33.2038 46.0716 31.8783 46.4277 30.4985C46.536 30.0799 46.6289 29.6535 46.7141 29.2272C46.7683 28.9249 46.8224 28.6148 46.8689 28.3125C46.8921 28.1187 46.9153 27.9249 46.9463 27.7311C46.985 27.4365 47.0082 27.1342 47.0392 26.8319C47.0702 26.4986 47.0856 26.173 47.0934 25.8397C47.1089 25.2428 47.1166 24.6382 47.0702 24.0413C47.0624 23.9405 47.0547 23.832 47.0547 23.7312C47.0469 23.3901 46.9927 23.0491 46.9695 22.708C46.9153 22.3359 46.8766 21.9716 46.8147 21.5995C46.7373 21.1189 46.6444 20.6383 46.536 20.1654C46.3116 19.2197 46.0329 18.2895 45.6846 17.3748C45.4755 16.8322 45.2511 16.2973 45.0034 15.778C44.9801 15.7237 44.9569 15.6617 44.9105 15.6152C44.9027 15.6074 44.895 15.6074 44.8872 15.5997C44.864 15.5842 44.8485 15.5919 44.8331 15.6152C44.7866 15.7314 44.7402 15.8477 44.6937 15.964C44.1906 17.2818 43.5481 18.5298 42.7431 19.6926C42.3173 20.305 41.8606 20.8941 41.3807 21.46C40.5911 22.3824 39.7551 23.2506 38.8959 24.1033C38.8804 24.1188 38.8649 24.1343 38.8494 24.1421C38.8185 24.1731 38.7643 24.1731 38.7411 24.1498C38.7101 24.1188 38.6791 24.0955 38.6482 24.0645C37.8973 23.3359 37.1465 22.6072 36.3956 21.8786C36.3647 21.8475 36.3337 21.8243 36.3105 21.7933C36.295 21.7778 36.2795 21.7623 36.264 21.7468C36.2021 21.677 36.1789 21.6383 36.2563 21.5685C36.3414 21.4832 36.4343 21.3902 36.5195 21.3049C37.0845 20.7391 37.6419 20.1732 38.1683 19.5763C38.5785 19.1112 38.981 18.6383 39.3526 18.1422C40.0415 17.2275 40.6143 16.2508 41.0633 15.1966C41.5355 14.0958 41.8606 12.9563 42.0774 11.7858C42.1006 11.654 42.1238 11.5223 42.1393 11.3905C42.147 11.3362 42.1393 11.2897 42.1006 11.2432C42.0541 11.1889 42.0077 11.1269 41.9612 11.0727C40.7305 9.61534 39.3371 8.34406 37.7812 7.25107C36.1015 6.07281 34.2979 5.15036 32.3549 4.48371C31.8286 4.30542 31.2944 4.14263 30.7526 4.0031C30.7216 3.9876 30.6907 3.9721 30.6674 3.96434ZM30.7603 46.2267C31.3409 46.0716 31.9834 45.8779 32.4091 45.7306C35.4899 44.6531 38.207 42.971 40.5447 40.6842C40.9936 40.2424 41.4271 39.785 41.8374 39.3044C41.9303 39.1959 42.0232 39.0796 42.1161 38.9711C42.1393 38.9478 42.1393 38.9168 42.1393 38.8858C42.1393 38.8548 42.1393 38.8238 42.1315 38.7928C42.0774 38.506 42.0309 38.2192 41.969 37.9401C41.8219 37.2502 41.6284 36.5758 41.3962 35.9092C40.9627 34.6689 40.3666 33.5139 39.6003 32.4519C39.399 32.1651 39.1823 31.886 38.9656 31.607C38.5089 31.0411 38.0289 30.4985 37.5335 29.9713C36.9297 29.3357 36.3027 28.7078 35.6757 28.1032C35.428 27.8629 35.1803 27.6303 34.9326 27.3978C34.6462 27.1265 34.3675 26.8552 34.0811 26.5838C33.2993 25.8474 32.5097 25.111 31.7202 24.3824C30.1178 22.8863 28.5155 21.3902 26.9209 19.8786C25.4811 18.5066 24.0491 17.1268 22.6325 15.7392C22.199 15.3129 21.7655 14.8788 21.3475 14.4292C21.2082 14.2741 21.0611 14.1268 20.9141 13.9873C20.1709 13.2819 19.5904 12.4602 19.1724 11.5145C19.1259 11.3982 19.0717 11.2897 19.0176 11.1734C18.8086 10.7316 18.646 10.2742 18.5299 9.80138C18.4293 9.39054 18.3673 8.97195 18.3673 8.54561C18.3673 8.42933 18.3673 8.32081 18.3673 8.20453C18.3673 7.90997 18.406 7.62315 18.4525 7.33634C18.5222 6.9255 18.6383 6.53016 18.7853 6.14258C19.033 5.48368 19.3736 4.86354 19.7916 4.29767C19.8458 4.22015 19.9 4.15039 19.9542 4.07287C19.9619 4.05736 19.9542 4.03411 19.9542 4.01861C19.9542 4.01085 19.9387 4.01085 19.9232 4.01085C19.8845 4.01085 19.8381 4.01085 19.7994 4.02636C19.242 4.17364 18.6847 4.34418 18.1428 4.53022C14.1796 5.91778 10.9671 8.32081 8.62169 11.1347C8.59072 11.1734 8.55202 11.2122 8.5288 11.2587C8.51332 11.282 8.49783 11.313 8.49783 11.344C8.49783 11.4292 8.51332 11.5068 8.52106 11.592C8.53654 11.7083 8.55976 11.8168 8.58298 11.9254C8.71458 12.5765 8.86939 13.2199 9.07065 13.8478C9.55058 15.3516 10.2472 16.7392 11.1839 18.0104C11.54 18.4911 11.9193 18.9562 12.314 19.4135C12.7475 19.9019 13.1887 20.3747 13.6455 20.8398C14.435 21.646 15.2478 22.4289 16.0683 23.2041C17.2914 24.3514 18.5144 25.4986 19.7374 26.6381C22.2764 29.0024 24.7922 31.3822 27.2692 33.8084C27.7027 34.227 28.1285 34.6456 28.5542 35.072C28.8096 35.3278 29.0574 35.5913 29.3051 35.8549C29.4367 35.9867 29.5605 36.1262 29.6998 36.2502C30.3191 36.8394 30.8377 37.5138 31.2248 38.2734C31.4415 38.6843 31.635 39.1106 31.8053 39.5447C31.9601 39.94 32.084 40.3431 32.1537 40.7617C32.2001 40.94 32.2079 41.1338 32.2311 41.3121C32.2466 41.4439 32.2543 41.5834 32.262 41.7152C32.2775 42.0718 32.2388 42.4206 32.1924 42.7694C32.1459 43.0795 32.0763 43.3818 31.9834 43.6764C31.7357 44.4748 31.3641 45.2112 30.8764 45.8856C30.8068 45.9786 30.7371 46.0639 30.6674 46.1569C30.652 46.1724 30.652 46.1957 30.6442 46.2112C30.6442 46.2189 30.6442 46.2267 30.652 46.2344C30.6597 46.2422 30.6674 46.2499 30.6829 46.2499C30.7216 46.2344 30.7603 46.2267 30.7603 46.2267ZM3.52051 24.7467C3.52051 24.987 3.52051 25.1808 3.52051 25.3823C3.52825 25.7932 3.52825 26.2118 3.5747 26.6226C3.58244 26.6769 3.58244 26.7234 3.58244 26.7776C3.59018 27.0877 3.64436 27.3978 3.66759 27.7078C3.70629 27.9326 3.71403 28.1574 3.76822 28.3822C3.8224 28.7931 3.89981 29.1962 3.98496 29.607C4.13203 30.2969 4.31007 30.9791 4.51907 31.6457C4.8287 32.6147 5.19252 33.5604 5.63374 34.4751C5.65697 34.5216 5.68019 34.5681 5.70341 34.6146C5.71115 34.6301 5.73437 34.6456 5.74986 34.6456C5.77308 34.6456 5.78856 34.6301 5.7963 34.6146C5.82726 34.5371 5.85823 34.4596 5.88919 34.3821C6.47749 32.793 7.28253 31.3124 8.30431 29.9558C8.7765 29.328 9.27965 28.7233 9.80603 28.1342C10.433 27.4365 11.0987 26.7621 11.7644 26.0955C11.7954 26.0645 11.8264 26.0412 11.8573 26.0102C11.8728 25.9947 11.927 25.9947 11.9425 26.0102C11.9889 26.049 12.0354 26.0877 12.0818 26.1342C12.523 26.5606 12.9565 26.9869 13.3977 27.4133C13.6919 27.7001 13.9938 27.9869 14.2879 28.2815C14.3499 28.3357 14.4041 28.3977 14.466 28.4598C14.4815 28.4753 14.4969 28.4908 14.4969 28.514C14.4969 28.5295 14.4815 28.5528 14.466 28.5683C14.4041 28.638 14.3344 28.7001 14.2725 28.7698C13.7306 29.3124 13.1965 29.8551 12.6779 30.4209C12.2908 30.8395 11.9193 31.2736 11.5709 31.7155C11.1607 32.2348 10.7736 32.7775 10.433 33.3433C9.81377 34.3666 9.34932 35.4596 9.00098 36.5991C8.79198 37.2735 8.64491 37.9556 8.52106 38.6533C8.51332 38.7153 8.50557 38.7773 8.49783 38.8393C8.49009 38.9013 8.49783 38.9633 8.54428 39.0098C8.58298 39.0564 8.62169 39.1106 8.66039 39.1571C9.5738 40.2346 10.5724 41.2191 11.6716 42.1028C14.0402 44.0097 16.6953 45.3585 19.6213 46.1647C19.7142 46.1879 19.7994 46.2112 19.8923 46.2344C19.9 46.2344 19.9155 46.2344 19.9232 46.2344C19.9465 46.2344 19.9619 46.2189 19.9697 46.2034C19.9697 46.1957 19.9697 46.1802 19.9697 46.1724C19.9155 46.0949 19.8613 46.0174 19.8071 45.9476C19.2653 45.2112 18.8473 44.405 18.5996 43.5136C18.4525 42.9865 18.3673 42.4438 18.3673 41.8935C18.3673 41.8237 18.3673 41.7462 18.3673 41.6764C18.3751 41.2501 18.437 40.8315 18.5376 40.4207C18.6537 39.9478 18.8163 39.4904 19.0253 39.0486C19.0795 38.9323 19.1337 38.8238 19.1801 38.7075C19.6059 37.7463 20.2019 36.9091 20.9682 36.196C21.0766 36.0952 21.1772 35.9944 21.2701 35.8859C21.3862 35.7541 21.5101 35.6301 21.6339 35.4983C21.6572 35.4751 21.6804 35.4518 21.7036 35.444C21.7191 35.4363 21.7501 35.4363 21.7655 35.444C21.8042 35.4751 21.8507 35.5061 21.8816 35.5448C22.6557 36.2967 23.4298 37.0409 24.1961 37.7928C24.2348 37.8316 24.2658 37.8703 24.3045 37.9013C24.3277 37.9246 24.3277 37.9634 24.3123 37.9866C24.2581 38.0486 24.2039 38.1106 24.1497 38.1727C23.902 38.4362 23.662 38.7075 23.4298 38.9866C23.2131 39.2501 23.0041 39.5215 22.8105 39.8005C22.7022 39.9633 22.5938 40.1261 22.5009 40.3044C22.4699 40.3586 22.4467 40.4129 22.4235 40.4749C22.3306 40.7385 22.2687 41.0098 22.2455 41.2888C22.2068 41.7152 22.2455 42.1338 22.3616 42.5524C22.5861 43.2965 22.9808 43.9244 23.5614 44.436C23.7472 44.5988 23.9562 44.7384 24.1729 44.8546C24.5135 45.0329 24.8851 45.1414 25.2721 45.1647C25.3031 45.1647 25.334 45.1647 25.365 45.1647C25.6591 45.1414 25.9378 45.0872 26.2087 44.9787C26.5958 44.8236 26.9364 44.5911 27.2383 44.2965C27.7105 43.8314 28.0511 43.281 28.2601 42.6531C28.3607 42.3431 28.4071 42.033 28.4226 41.7074C28.4381 41.4594 28.3762 40.9555 28.2755 40.6377C28.2291 40.4904 28.1749 40.3431 28.0898 40.2114C28.0201 40.0951 27.9504 39.9788 27.873 39.8703C27.7259 39.6455 27.5634 39.4284 27.3931 39.2191C27.0912 38.8393 26.7661 38.475 26.4255 38.1261C26.0307 37.7153 25.6282 37.3122 25.2257 36.9169C24.5677 36.2735 23.9097 35.6301 23.244 34.9944C21.4249 33.2426 19.5904 31.5062 17.7481 29.7853C16.4476 28.5683 15.1472 27.359 13.8467 26.142C12.9565 25.3048 12.0741 24.4599 11.2148 23.5917C10.6343 23.0026 10.0615 22.4057 9.51962 21.7778C9.06291 21.2584 8.62169 20.7158 8.21143 20.1577C7.51475 19.2042 6.91097 18.1887 6.41556 17.119C6.20656 16.6617 6.01304 16.1888 5.835 15.7159C5.82726 15.6849 5.81952 15.6539 5.7963 15.6307C5.78082 15.6152 5.76534 15.6074 5.74212 15.5997C5.74212 15.5997 5.72663 15.6152 5.71889 15.6229C5.69567 15.6694 5.66471 15.7082 5.64149 15.7547C4.999 17.0957 4.50359 18.4833 4.14751 19.9251C4.03914 20.367 3.94625 20.8088 3.8611 21.2584C3.79918 21.5917 3.74499 21.9328 3.70629 22.2739C3.68307 22.4909 3.65984 22.708 3.62888 22.925C3.60566 23.1111 3.59018 23.2971 3.58244 23.4832C3.5747 23.5839 3.56696 23.6925 3.55921 23.7932C3.55147 23.925 3.53599 24.0645 3.53599 24.1963C3.52825 24.3824 3.52825 24.5839 3.52051 24.7467ZM19.1027 24.1731C19.1569 24.1421 19.2033 24.0955 19.242 24.0568C19.5207 23.7932 19.7994 23.5374 20.078 23.2739C21.4095 22.0336 22.7331 20.7856 24.0568 19.522C24.1187 19.4678 24.1729 19.4058 24.2348 19.3515C24.2503 19.336 24.2581 19.3205 24.2735 19.2972C24.2813 19.274 24.2813 19.2585 24.2735 19.243C24.2426 19.2042 24.2039 19.1655 24.1729 19.1267C23.4143 18.3903 22.6557 17.6539 21.8971 16.9252C21.8429 16.8787 21.7888 16.8244 21.7346 16.7779C21.7114 16.7624 21.6726 16.7624 21.6494 16.7779C21.5798 16.8399 21.5101 16.902 21.4404 16.964C20.2251 18.119 19.0098 19.2662 17.779 20.4135C17.3843 20.7778 16.9895 21.1499 16.6024 21.5142C16.5637 21.553 16.525 21.584 16.4941 21.6227C16.4786 21.646 16.4786 21.6925 16.5018 21.708C16.556 21.7623 16.6024 21.8088 16.6566 21.8631C17.1056 22.3049 17.5623 22.7467 18.0113 23.1808C18.3131 23.4754 18.6228 23.77 18.9247 24.0645C18.9634 24.1033 19.0021 24.1343 19.0408 24.1653C19.0485 24.1731 19.0563 24.1731 19.0717 24.1808C19.0872 24.1808 19.095 24.1731 19.1027 24.1731ZM28.9799 33.4364C29.0651 33.3588 29.1502 33.2813 29.2277 33.2038C30.3965 32.0876 31.5654 30.9868 32.7497 29.8861C33.1522 29.514 33.547 29.1419 33.9495 28.7621C33.996 28.7233 34.0347 28.6768 34.0811 28.6303C34.1043 28.607 34.1121 28.5683 34.0889 28.545C34.0502 28.5063 34.0192 28.4675 33.9805 28.4288C33.1987 27.6691 32.4246 26.9172 31.6428 26.1575C31.6118 26.1265 31.5808 26.1032 31.5499 26.08C31.5267 26.0645 31.4802 26.0567 31.4647 26.08C31.4028 26.1342 31.3409 26.1885 31.279 26.2428C30.1643 27.2893 29.0419 28.3357 27.9272 29.3822C27.4628 29.8241 26.9983 30.2659 26.5339 30.7078C26.4642 30.7698 26.4023 30.8395 26.3403 30.9093C26.3249 30.9326 26.3249 30.9636 26.3481 30.9946C26.3868 31.0411 26.4332 31.0876 26.4797 31.1264C27.2383 31.8628 27.9891 32.5914 28.7477 33.3278C28.7942 33.3743 28.8329 33.4209 28.8871 33.4519C28.8948 33.4596 28.9103 33.4519 28.918 33.4596C28.9412 33.4441 28.9645 33.4441 28.9799 33.4364Z" fill="url(#paint1_linear_122_43)"/>
<path d="M89.506 10.3542C88.8357 7.41492 86.4736 4.81128 82.8034 4.21044C81.6088 4.01557 80.4196 4.0697 79.2412 4.33494C76.8521 4.87623 75.0143 6.19159 73.8359 8.34595C72.5602 10.6735 72.3548 13.1256 73.2035 15.6372C74.0089 18.0189 75.6305 19.6645 77.9548 20.5955C79.0034 21.0177 80.1061 21.2126 81.2358 21.2017C82.0034 21.2234 82.8033 21.1314 83.6304 20.8986C86.1925 20.1949 88.0087 18.6252 89.0465 16.1677C89.3925 15.3557 89.5762 14.5005 89.6843 13.6236C89.8195 12.5193 89.7546 11.4313 89.506 10.3542ZM85.9763 16.0215C85.8412 16.5899 85.652 17.1474 85.3925 17.6725C85.1493 18.1542 84.8574 18.6035 84.4682 18.9824C83.4952 19.9351 82.3331 20.2924 80.9872 20.0975C79.825 19.9243 78.8899 19.3559 78.1331 18.4736C77.5872 17.8349 77.198 17.1095 76.9061 16.3247C76.5818 15.4532 76.3764 14.5546 76.2953 13.6236C76.2791 13.4287 76.2521 13.2339 76.2413 13.039C76.1386 11.5396 76.2737 10.0673 76.7548 8.63283C76.971 7.97786 77.2845 7.37702 77.7061 6.83031C78.225 6.16452 78.8629 5.63946 79.6791 5.37964C80.9007 4.99532 82.0844 5.1144 83.2034 5.75313C83.852 6.12663 84.3601 6.64627 84.7817 7.25253C85.2736 7.96163 85.6033 8.7465 85.8357 9.56928C86.1547 10.7277 86.2952 11.9131 86.279 13.1743C86.3006 14.0945 86.1979 15.0634 85.9763 16.0215ZM117.981 10.9171C117.981 9.45019 117.976 7.98869 117.987 6.52178C117.992 6.01296 117.857 5.55285 117.549 5.14688C117.376 4.91412 117.203 4.68137 117.03 4.4432C117.003 4.40531 116.976 4.35659 116.96 4.30787C116.916 4.15631 116.96 4.09677 117.111 4.09677C118.543 4.09135 119.981 4.08594 121.414 4.08053C121.462 4.08053 121.516 4.09135 121.565 4.10218C121.684 4.14007 121.716 4.22668 121.646 4.32952C121.57 4.43778 121.489 4.54604 121.403 4.64889C120.954 5.17936 120.689 5.79103 120.657 6.47847C120.608 7.46363 120.581 8.44879 120.581 9.43936C120.581 12.0809 120.603 14.7224 120.619 17.3639C120.619 17.8024 120.619 18.2463 120.652 18.6847C120.695 19.3397 120.927 19.9405 121.316 20.4656C121.424 20.6117 121.576 20.7254 121.7 20.8661C121.765 20.9419 121.803 21.0177 121.776 21.0772C121.738 21.1693 121.565 21.1747 121.554 21.1747C120.311 21.1747 119.068 21.1747 117.825 21.1747C117.733 21.1747 117.608 21.1638 117.484 21.0989C117.349 21.0231 117.284 20.9149 117.257 20.877C115.803 18.6522 114.338 16.4275 112.879 14.2082C111.889 12.698 110.9 11.1932 109.911 9.68295C109.884 9.64506 109.862 9.60175 109.83 9.56928C109.792 9.5368 109.727 9.49891 109.695 9.50973C109.657 9.52597 109.63 9.59093 109.614 9.63965C109.603 9.67754 109.608 9.72084 109.608 9.76414C109.608 12.7413 109.608 15.713 109.608 18.6901C109.608 19.1935 109.733 19.6482 110.035 20.0542C110.257 20.3465 110.473 20.6388 110.695 20.9311C110.738 20.9906 110.754 21.0448 110.733 21.0881C110.711 21.1422 110.635 21.1584 110.603 21.1693C110.544 21.1855 110.495 21.1801 110.462 21.1747C109.965 21.1801 106.43 21.2126 106.062 21.1747C106.014 21.1693 105.89 21.1584 105.852 21.0827C105.819 21.0123 105.884 20.9203 105.911 20.8824C106.106 20.6171 106.333 20.3736 106.506 20.0975C106.808 19.6157 106.949 19.0744 106.954 18.5115C106.976 15.9782 106.987 13.4395 106.992 10.9063C106.992 9.58552 106.965 8.26475 106.96 6.94399C106.954 5.9913 106.679 5.1523 106.025 4.4432C105.992 4.41072 105.96 4.37283 105.938 4.33494C105.857 4.22126 105.906 4.10218 106.041 4.08053C106.09 4.0697 106.144 4.0697 106.192 4.0697C107.398 4.0697 108.608 4.0697 109.814 4.0697C110.041 4.0697 110.208 4.15631 110.338 4.35118C110.862 5.16312 111.398 5.96965 111.927 6.77619C112.527 7.68556 113.122 8.60036 113.722 9.50973C114.327 10.4354 114.933 11.3556 115.538 12.2812C116.252 13.3692 116.96 14.4518 117.673 15.5344C117.722 15.6101 117.754 15.7509 117.889 15.7022C118.014 15.6589 117.976 15.5398 117.976 15.4478C117.981 13.9484 117.981 12.4327 117.981 10.9171ZM67.1603 10.9117C67.1603 9.45019 67.1549 7.98328 67.1657 6.52178C67.1711 6.01296 67.036 5.55285 66.7333 5.14688C66.5603 4.91412 66.3874 4.68137 66.2144 4.4432C66.1874 4.40531 66.1603 4.35659 66.1441 4.30787C66.1009 4.15631 66.1441 4.09677 66.2955 4.09677C67.7279 4.09135 69.1603 4.08594 70.5981 4.08053C70.6468 4.08053 70.7008 4.09135 70.7495 4.10218C70.8684 4.14007 70.9008 4.22668 70.8305 4.32952C70.7549 4.43778 70.6738 4.54604 70.5873 4.64889C70.1387 5.17936 69.8738 5.79103 69.8414 6.47847C69.7927 7.46363 69.7657 8.44879 69.7657 9.43395C69.7657 12.0755 69.7873 14.7116 69.8035 17.3531C69.8035 17.7916 69.8035 18.2354 69.836 18.6739C69.8792 19.3289 70.1116 19.9243 70.5008 20.4548C70.6089 20.6009 70.7603 20.7146 70.8846 20.8553C70.9495 20.9311 70.9873 21.0069 70.9603 21.0664C70.9224 21.1584 70.7495 21.1639 70.7386 21.1639C69.4954 21.1639 68.2522 21.1639 67.009 21.1639C66.9171 21.1639 66.7928 21.153 66.6684 21.0881C66.5333 21.0123 66.4684 20.904 66.4414 20.8661C64.9874 18.6414 63.5279 16.4221 62.0685 14.2028C61.0793 12.698 60.0901 11.1878 59.101 9.68295C59.0739 9.64506 59.0523 9.60175 59.0199 9.56928C58.982 9.5368 58.9172 9.49891 58.8848 9.50973C58.8469 9.52597 58.8199 9.59093 58.8037 9.63965C58.7929 9.67754 58.7983 9.72084 58.7983 9.76414C58.7983 12.7359 58.7983 15.7076 58.7983 18.6847C58.7983 19.1881 58.9226 19.6428 59.2253 20.0488C59.4469 20.3411 59.6631 20.6334 59.8847 20.9257C59.9064 20.9582 59.9496 21.0285 59.9226 21.0827C59.9064 21.1097 59.8739 21.126 59.8307 21.1422C59.7928 21.1584 59.7334 21.1747 59.6523 21.1693C59.155 21.1747 55.6253 21.2072 55.2578 21.1693C55.2091 21.1639 55.0848 21.153 55.047 21.0772C55.0145 21.0069 55.0794 20.9149 55.1064 20.877C55.301 20.6117 55.528 20.3681 55.701 20.0921C56.0037 19.6103 56.1442 19.069 56.1497 18.5061C56.1713 15.9728 56.1821 13.4395 56.1875 10.9063C56.1875 9.58552 56.1605 8.26475 56.1551 6.9494C56.1497 5.99672 55.874 5.15771 55.2253 4.45402C55.1929 4.42154 55.1659 4.38365 55.1389 4.34576C55.0578 4.23209 55.1064 4.11301 55.2416 4.09135C55.2902 4.08053 55.3443 4.08053 55.3929 4.08053C56.5983 4.08053 57.8091 4.08053 59.0145 4.08053C59.2415 4.08053 59.4091 4.16714 59.5334 4.362C60.0577 5.17395 60.5928 5.98048 61.1226 6.78701C61.7171 7.69639 62.3171 8.60577 62.9117 9.52056C63.5171 10.4408 64.1225 11.3664 64.7279 12.2866C65.4414 13.3692 66.1495 14.4572 66.863 15.5398C66.9117 15.6156 66.9441 15.7509 67.0792 15.7076C67.2036 15.6697 67.1657 15.5452 67.1657 15.4532C67.1603 13.9375 67.1603 12.4219 67.1603 10.9117ZM133.916 21.2017C133.197 21.2017 132.478 21.2017 131.759 21.2017C131.7 21.2017 131.635 21.2017 131.576 21.1909C131.473 21.1747 131.435 21.1097 131.484 21.0177C131.532 20.9203 131.597 20.8337 131.668 20.747C131.749 20.6388 131.846 20.5414 131.927 20.4331C132.186 20.0975 132.284 19.7132 132.241 19.291C132.235 19.2098 132.208 19.134 132.186 19.0582C131.884 18.0568 131.586 17.05 131.284 16.0486C131.268 15.9836 131.251 15.9187 131.23 15.8591C131.187 15.7401 131.105 15.6751 130.976 15.6697C130.873 15.6697 130.77 15.6643 130.668 15.6643C129.446 15.6643 128.23 15.6643 127.008 15.6643C126.992 15.6643 126.97 15.6643 126.954 15.6643C126.727 15.6697 126.673 15.713 126.603 15.9295C126.484 16.3084 126.37 16.6819 126.257 17.0608C126.17 17.3531 126.073 17.64 126.014 17.9377C125.797 18.9499 126.089 19.7835 126.9 20.4277C127.122 20.6063 127.349 20.7741 127.576 20.9473C127.603 20.969 127.635 20.9906 127.657 21.0177C127.7 21.0718 127.689 21.1314 127.624 21.1639C127.597 21.1801 127.56 21.1855 127.532 21.1909C127.484 21.1963 127.43 21.2017 127.381 21.2017C126.181 21.2017 124.987 21.2017 123.787 21.2017C123.743 21.2017 123.7 21.2017 123.657 21.1963C123.57 21.1801 123.533 21.1422 123.538 21.0556C123.543 21.0015 123.554 20.9473 123.57 20.8932C123.835 20.0109 124.1 19.134 124.365 18.2517C125.381 14.8577 126.392 11.4584 127.408 8.06447C127.587 7.46904 127.754 6.87362 127.922 6.27278C127.965 6.11039 127.987 5.94259 128.014 5.7802C128.041 5.61781 127.997 5.47166 127.9 5.33634C127.711 5.07651 127.527 4.81128 127.343 4.55146C127.289 4.47567 127.246 4.39448 127.208 4.31329C127.154 4.18879 127.187 4.12924 127.327 4.10759C127.354 4.10218 127.387 4.10218 127.414 4.10218C128.824 4.10218 130.241 4.10218 131.651 4.10218C131.711 4.10218 131.77 4.10759 131.824 4.12383C131.878 4.14007 131.916 4.16714 131.927 4.19961C131.949 4.24833 131.922 4.30787 131.911 4.33494C131.814 4.53522 131.668 4.75715 131.597 4.86541C131.549 4.9466 131.505 5.01697 131.468 5.11982C131.451 5.16312 131.381 5.35257 131.381 5.61781C131.381 5.81268 131.414 5.96965 131.446 6.0725C131.446 6.0725 131.446 6.07791 131.808 7.25794C131.997 7.88043 135.105 18.2517 135.527 19.6807C135.657 20.1191 135.873 20.5089 136.213 20.8228C136.273 20.877 136.327 20.9365 136.37 21.0069C136.43 21.0989 136.392 21.1801 136.284 21.2017C136.235 21.2126 136.181 21.2126 136.132 21.2126C135.392 21.2017 134.651 21.2017 133.916 21.2017ZM128.905 14.1811C129.046 14.1811 129.181 14.1811 129.322 14.1811C129.614 14.1811 129.905 14.1811 130.197 14.1811C130.3 14.1811 130.403 14.1703 130.5 14.1541C130.619 14.1324 130.657 14.0675 130.635 13.9484C130.624 13.9051 130.614 13.8618 130.603 13.8239C130.214 12.5302 129.83 11.2365 129.441 9.94277C129.311 9.50432 129.17 9.06587 129.035 8.62201C129.024 8.58412 129.014 8.54623 128.992 8.50833C128.943 8.43255 128.873 8.43255 128.835 8.50833C128.803 8.5787 128.776 8.64907 128.754 8.72485C128.56 9.37441 128.365 10.024 128.17 10.6789C127.868 11.6912 127.56 12.7088 127.257 13.721C127.235 13.7914 127.219 13.8618 127.208 13.9321C127.187 14.0675 127.235 14.1432 127.376 14.1649C127.451 14.1811 127.527 14.1811 127.603 14.1811C128.041 14.1811 128.473 14.1811 128.905 14.1811ZM95.3275 4.08594C96.3383 4.08594 97.3491 4.08053 98.3653 4.08594C98.6194 4.08594 98.8734 4.10218 99.1221 4.13466C100.019 4.24833 100.83 4.58393 101.554 5.13064C102.646 5.95341 103.338 7.03601 103.603 8.38384C103.9 9.89405 103.479 11.637 102.36 12.882C101.781 13.5316 101.095 14.0133 100.284 14.3273C100.187 14.3652 100.09 14.4031 99.9923 14.4409C99.9599 14.4518 99.9274 14.468 99.9004 14.4897C99.8572 14.5167 99.8464 14.56 99.868 14.6087C99.8896 14.6521 99.9166 14.6954 99.9437 14.7332C100.592 15.6859 101.241 16.6386 101.89 17.5913C102.517 18.5115 103.149 19.4371 103.781 20.3573C103.911 20.5468 104.03 20.7416 104.154 20.9365C104.165 20.9527 104.176 20.9636 104.181 20.9798C104.225 21.0718 104.176 21.1584 104.079 21.1747C104.025 21.1801 103.976 21.1801 103.922 21.1801C102.646 21.1801 101.371 21.1801 100.095 21.1801C100.036 21.1801 99.9707 21.1747 99.9112 21.1639C99.8464 21.1476 99.8193 21.1151 99.8193 21.0448C99.8193 21.0123 99.8247 20.9744 99.8356 20.9419C99.8842 20.7471 99.9383 20.5522 99.9869 20.3573C100.09 19.9026 100.036 19.4642 99.8518 19.042C99.7977 18.9229 99.7383 18.8038 99.6626 18.6955C99.068 17.8186 98.468 16.9417 97.8734 16.0648C97.695 15.7996 97.5167 15.5398 97.2951 15.3124C97.1167 15.1284 96.9167 14.966 96.6842 14.8469C96.4518 14.7278 96.2086 14.6737 95.9491 14.6845C95.7924 14.6899 95.6356 14.6845 95.4789 14.6845C95.3437 14.6845 95.3167 14.7116 95.3167 14.8415C95.3167 15.6643 95.3221 16.4925 95.3275 17.3152C95.3275 17.7429 95.3329 18.1705 95.3329 18.5981C95.3329 18.7767 95.3599 18.9445 95.4086 19.1123C95.5383 19.5562 95.7437 19.9676 96.0194 20.3357C96.1653 20.5305 96.3113 20.7254 96.4572 20.9203C96.4951 20.9744 96.5599 21.0231 96.5221 21.1043C96.4788 21.1909 96.3978 21.1747 96.3221 21.1801C95.9437 21.1801 95.5653 21.1801 95.187 21.1855C94.3762 21.1909 93.5654 21.1963 92.7546 21.1963C92.4465 21.1963 92.1384 21.1855 91.8249 21.1801C91.7708 21.1801 91.7222 21.1693 91.6735 21.153C91.5762 21.126 91.5492 21.061 91.5924 20.969C91.6195 20.9149 91.6519 20.8661 91.6897 20.8174C91.8032 20.6659 91.9221 20.5197 92.0357 20.3736C92.4789 19.816 92.6789 19.1827 92.6843 18.4736C92.6897 17.8565 92.6897 17.2394 92.6951 16.6278C92.7005 15.5235 92.7059 14.4193 92.7113 13.315C92.7167 12.449 92.7221 11.5829 92.7221 10.7168C92.7221 9.80745 92.7113 8.89266 92.7005 7.98328C92.6951 7.57189 92.6951 7.16051 92.6843 6.74912C92.6681 6.17535 92.5275 5.62864 92.2465 5.11982C92.1113 4.87623 91.9492 4.65971 91.7654 4.45402C91.7276 4.41072 91.6897 4.37283 91.6627 4.32411C91.5924 4.20503 91.6465 4.10218 91.7816 4.08053C91.8249 4.07511 91.8735 4.07511 91.9167 4.07511C93.0465 4.08594 94.187 4.08594 95.3275 4.08594ZM96.3329 13.1743C96.3329 13.1689 96.3329 13.1689 96.3329 13.1743C96.5059 13.1743 96.6788 13.1689 96.8518 13.1743C97.3599 13.1797 97.841 13.0715 98.3004 12.8658C99.0194 12.5464 99.5761 12.0322 100.009 11.3826C100.3 10.9496 100.473 10.4678 100.549 9.94818C100.603 9.55304 100.587 9.15789 100.522 8.76274C100.43 8.1998 100.236 7.67474 99.9058 7.20381C99.5653 6.71664 99.1275 6.33774 98.614 6.03461C98.0194 5.68277 97.3707 5.54203 96.6842 5.58533C96.014 5.62322 95.3167 6.25113 95.3221 7.05766C95.3329 8.95761 95.3221 10.8576 95.3275 12.7575C95.3275 12.8333 95.3275 12.9091 95.3329 12.9849C95.3437 13.0985 95.4032 13.1527 95.5113 13.1635C95.5437 13.1689 95.5816 13.1689 95.614 13.1689C95.8518 13.1743 96.0897 13.1743 96.3329 13.1743Z" fill="url(#paint2_linear_122_43)"/>
<defs>
<linearGradient id="paint0_linear_122_43" x1="135.964" y1="37.4109" x2="54.417" y2="37.5118" gradientUnits="userSpaceOnUse">
<stop stop-color="#A0A0A0"/>
<stop offset="0.128263" stop-color="#ACACAC"/>
<stop offset="0.209125" stop-color="#B8B8B8"/>
<stop offset="0.355512" stop-color="#C0C0C0"/>
<stop offset="0.412672" stop-color="#B9B9B9"/>
<stop offset="0.579972" stop-color="#ADADAD"/>
<stop offset="0.648286" stop-color="#A7A7A7"/>
<stop offset="0.737512" stop-color="#AAAAAA"/>
<stop offset="0.805826" stop-color="#B0B0B0"/>
<stop offset="0.982" stop-color="#C1C1C1"/>
</linearGradient>
<linearGradient id="paint1_linear_122_43" x1="45.7256" y1="39.2654" x2="4.99954" y2="11.5193" gradientUnits="userSpaceOnUse">
<stop offset="0.018" stop-color="#CFCFCF"/>
<stop offset="0.4145" stop-color="#CFCFCF"/>
<stop offset="1" stop-color="#828282"/>
</linearGradient>
<linearGradient id="paint2_linear_122_43" x1="134.532" y1="12.6271" x2="52.551" y2="12.7553" gradientUnits="userSpaceOnUse">
<stop stop-color="#BABABA"/>
<stop offset="0.0976868" stop-color="#C4C4C4"/>
<stop offset="0.187902" stop-color="#BCBCBC"/>
<stop offset="0.322191" stop-color="#B1B1B1"/>
<stop offset="0.406878" stop-color="#AAAAAA"/>
<stop offset="0.495194" stop-color="#A7A7A7"/>
<stop offset="0.567783" stop-color="#ADADAD"/>
<stop offset="0.727475" stop-color="#BBBBBB"/>
<stop offset="0.800065" stop-color="#C4C4C4"/>
<stop offset="0.982" stop-color="#CFCFCF"/>
</linearGradient>
</defs>
</svg>
