<svg width="375" height="707" viewBox="0 0 375 707" fill="none" xmlns="http://www.w3.org/2000/svg">
<g opacity="0.7" filter="url(#filter0_f_2037_3)">
<path d="M386.251 64.6403C467.659 53.5924 466.905 -14.9308 456.353 -47.8115C440.523 -80.0345 399.366 -149.215 361.376 -168.155C313.887 -191.829 194.036 -164.209 180.468 -124.752C166.9 -85.2954 74.1842 -77.4041 -2.70176 -61.6214C-79.5877 -45.8387 -4.96313 100.151 42.5252 145.527C90.0136 190.902 173.684 145.527 230.217 113.961C286.751 82.3959 284.49 78.4502 386.251 64.6403Z" fill="#205EE5"/>
<path d="M78.9462 173.755C82.2561 208.928 123 220.644 142.958 222.106C159.47 224.941 166.598 253.343 166.952 300.237C167.306 347.131 258.502 354.404 313.464 388.531C368.425 422.658 458.914 336.143 461.642 306.911C464.371 277.679 429.224 247.089 383.198 249.68C337.171 252.271 339.076 151.745 330.141 115.027C321.206 78.3095 187.923 78.8335 117.44 93.2695C46.9571 107.705 74.8087 129.788 78.9462 173.755Z" fill="#153F9A"/>
</g>
<g clip-path="url(#clip0_2037_3)">
<g filter="url(#filter1_f_2037_3)">
<path d="M-19.4017 530.268C62.0069 541.316 61.2531 609.839 50.7001 642.72C34.8707 674.943 -6.28592 744.124 -44.2766 763.063C-91.765 786.737 -211.617 759.117 -225.185 719.66C-238.753 680.204 -331.468 672.312 -408.354 656.529C-485.24 640.747 -410.615 494.757 -363.127 449.381C-315.639 404.006 -231.969 449.381 -175.435 480.947C-118.901 512.512 -121.163 516.458 -19.4017 530.268Z" fill="#205EE5"/>
<path d="M251.669 432.75C177.044 444.587 183.828 541.256 183.828 555.066C187.597 564.273 202.371 582.686 231.317 582.686C267.498 582.686 314.987 580.713 351.168 582.686C387.35 584.659 371.52 649.763 439.361 671.464C507.202 693.165 593.133 669.491 651.928 671.464C710.723 673.437 685.848 604.387 676.803 555.066C667.757 505.745 556.951 513.637 498.156 527.447C439.361 541.256 428.054 529.419 403.179 480.098C378.305 430.777 326.294 420.913 251.669 432.75Z" fill="#153F9A"/>
<path d="M-326.706 421.153C-323.396 385.98 -282.653 374.264 -262.694 372.803C-246.183 369.967 -239.055 341.565 -238.701 294.671C-238.347 247.778 -147.15 240.504 -92.1886 206.377C-37.227 172.251 53.2613 258.765 55.9898 287.997C58.7183 317.229 23.572 347.819 -22.4549 345.228C-68.4817 342.637 -66.5769 443.163 -75.5116 479.881C-84.4464 516.599 -217.73 516.075 -288.212 501.639C-358.695 487.203 -330.844 465.12 -326.706 421.153Z" fill="#153F9A"/>
</g>
</g>
<defs>
<filter id="filter0_f_2037_3" x="-235.848" y="-376.914" width="1531.31" height="973.289" filterUnits="userSpaceOnUse" color-interpolation-filters="sRGB">
<feFlood flood-opacity="0" result="BackgroundImageFix"/>
<feBlend mode="normal" in="SourceGraphic" in2="BackgroundImageFix" result="shape"/>
<feGaussianBlur stdDeviation="100" result="effect1_foregroundBlur_2037_3"/>
</filter>
<filter id="filter1_f_2037_3" x="-641.5" y="-1.46701" width="1531.31" height="973.289" filterUnits="userSpaceOnUse" color-interpolation-filters="sRGB">
<feFlood flood-opacity="0" result="BackgroundImageFix"/>
<feBlend mode="normal" in="SourceGraphic" in2="BackgroundImageFix" result="shape"/>
<feGaussianBlur stdDeviation="100" result="effect1_foregroundBlur_2037_3"/>
</filter>
<clipPath id="clip0_2037_3">
<rect width="1132" height="553" fill="white" transform="translate(-441.5 154)"/>
</clipPath>
</defs>
</svg>
