<svg width="1221" height="597" viewBox="0 0 1221 597" fill="none" xmlns="http://www.w3.org/2000/svg">
<g filter="url(#filter0_f_2037_2)">
<path d="M909.548 64.6404C828.14 53.5925 828.893 -14.9307 839.446 -47.8114C855.276 -80.0344 896.432 -149.215 934.423 -168.155C981.911 -191.829 1101.76 -164.209 1115.33 -124.752C1128.9 -85.2953 1221.61 -77.404 1298.5 -61.6213C1375.39 -45.8386 1300.76 100.152 1253.27 145.527C1205.79 190.902 1122.12 145.527 1065.58 113.961C1009.05 82.396 1011.31 78.4503 909.548 64.6404Z" fill="#205EE5"/>
<path d="M638.478 162.158C713.102 150.321 706.318 53.652 706.318 39.8421C702.549 30.6355 687.775 12.2224 658.83 12.2224C622.648 12.2224 575.16 14.1952 538.978 12.2224C502.796 10.2495 518.626 -54.8541 450.785 -76.5554C382.945 -98.2566 297.014 -74.5825 238.218 -76.5553C179.423 -78.5282 204.298 -9.47882 213.344 39.8422C222.389 89.1631 333.195 81.2717 391.99 67.4619C450.785 53.652 462.092 65.489 486.967 114.81C511.842 164.131 563.853 173.995 638.478 162.158Z" fill="#153F9A"/>
<path d="M1216.85 173.755C1213.54 208.929 1172.8 220.645 1152.84 222.106C1136.33 224.941 1129.2 253.343 1128.85 300.237C1128.49 347.131 1037.3 354.404 982.335 388.531C927.374 422.658 836.885 336.143 834.157 306.911C831.428 277.679 866.574 247.089 912.601 249.68C958.628 252.271 956.723 151.745 965.658 115.027C974.593 78.3097 1107.88 78.8336 1178.36 93.2696C1248.84 107.706 1220.99 129.788 1216.85 173.755Z" fill="#153F9A"/>
</g>
<g opacity="0.7" filter="url(#filter1_f_2037_2)">
<path d="M622.439 64.6404C703.848 53.5925 703.094 -14.9307 692.541 -47.8114C676.712 -80.0344 635.555 -149.215 597.564 -168.155C550.076 -191.829 430.224 -164.209 416.656 -124.752C403.088 -85.2953 310.373 -77.404 233.487 -61.6213C156.601 -45.8386 231.225 100.152 278.714 145.527C326.202 190.902 409.872 145.527 466.406 113.961C522.94 82.396 520.678 78.4503 622.439 64.6404Z" fill="#205EE5"/>
<path d="M893.51 162.158C818.885 150.321 825.669 53.652 825.669 39.8421C829.438 30.6355 844.212 12.2224 873.158 12.2224C909.339 12.2224 956.828 14.1952 993.009 12.2224C1029.19 10.2495 1013.36 -54.8541 1081.2 -76.5554C1149.04 -98.2566 1234.97 -74.5825 1293.77 -76.5553C1352.56 -78.5282 1327.69 -9.47882 1318.64 39.8422C1309.6 89.1631 1198.79 81.2717 1140 67.4619C1081.2 53.652 1069.9 65.489 1045.02 114.81C1020.15 164.131 968.134 173.995 893.51 162.158Z" fill="#153F9A"/>
<path d="M315.135 173.755C318.445 208.929 359.188 220.645 379.147 222.106C395.658 224.941 402.786 253.343 403.14 300.237C403.494 347.131 494.691 354.404 549.652 388.531C604.614 422.658 695.102 336.143 697.831 306.911C700.559 277.679 665.413 247.089 619.386 249.68C573.359 252.271 575.264 151.745 566.329 115.027C557.395 78.3097 424.111 78.8336 353.628 93.2696C283.146 107.706 310.997 129.788 315.135 173.755Z" fill="#153F9A"/>
</g>
<g opacity="0.7" filter="url(#filter2_f_2037_2)">
<path d="M622.439 64.6403C703.848 53.5924 703.094 -14.9308 692.541 -47.8115C676.712 -80.0345 635.555 -149.215 597.564 -168.155C550.076 -191.829 430.224 -164.209 416.656 -124.752C403.088 -85.2954 310.373 -77.4041 233.487 -61.6214C156.601 -45.8387 231.225 100.151 278.714 145.527C326.202 190.902 409.872 145.527 466.406 113.961C522.94 82.3959 520.678 78.4502 622.439 64.6403Z" fill="#205EE5"/>
<path d="M893.51 162.158C818.885 150.321 825.669 53.6518 825.669 39.842C829.438 30.6354 844.212 12.2222 873.158 12.2222C909.339 12.2222 956.828 14.1951 993.009 12.2222C1029.19 10.2494 1013.36 -54.8543 1081.2 -76.5555C1149.04 -98.2567 1234.97 -74.5826 1293.77 -76.5555C1352.56 -78.5283 1327.69 -9.47894 1318.64 39.842C1309.6 89.163 1198.79 81.2716 1140 67.4617C1081.2 53.6519 1069.9 65.4889 1045.02 114.81C1020.15 164.131 968.134 173.995 893.51 162.158Z" fill="#153F9A"/>
<path d="M315.135 173.755C318.445 208.928 359.188 220.644 379.147 222.106C395.658 224.941 402.786 253.343 403.14 300.237C403.494 347.131 494.691 354.404 549.652 388.531C604.614 422.658 695.102 336.143 697.831 306.911C700.559 277.679 665.413 247.089 619.386 249.68C573.359 252.271 575.264 151.745 566.329 115.027C557.395 78.3095 424.111 78.8335 353.628 93.2695C283.146 107.705 310.997 129.788 315.135 173.755Z" fill="#153F9A"/>
</g>
<g opacity="0.7" filter="url(#filter3_f_2037_2)">
<path d="M622.439 64.6403C703.848 53.5924 703.094 -14.9308 692.541 -47.8115C676.712 -80.0345 635.555 -149.215 597.564 -168.155C550.076 -191.829 430.224 -164.209 416.656 -124.752C403.088 -85.2954 310.373 -77.4041 233.487 -61.6214C156.601 -45.8387 231.225 100.151 278.714 145.527C326.202 190.902 409.872 145.527 466.406 113.961C522.94 82.3959 520.678 78.4502 622.439 64.6403Z" fill="#205EE5"/>
<path d="M893.51 162.158C818.885 150.321 825.669 53.6518 825.669 39.842C829.438 30.6354 844.212 12.2222 873.158 12.2222C909.339 12.2222 956.828 14.1951 993.009 12.2222C1029.19 10.2494 1013.36 -54.8543 1081.2 -76.5555C1149.04 -98.2567 1234.97 -74.5826 1293.77 -76.5555C1352.56 -78.5283 1327.69 -9.47894 1318.64 39.842C1309.6 89.163 1198.79 81.2716 1140 67.4617C1081.2 53.6519 1069.9 65.4889 1045.02 114.81C1020.15 164.131 968.134 173.995 893.51 162.158Z" fill="#153F9A"/>
<path d="M315.135 173.755C318.445 208.928 359.188 220.644 379.147 222.106C395.658 224.941 402.786 253.343 403.14 300.237C403.494 347.131 494.691 354.404 549.652 388.531C604.614 422.658 695.102 336.143 697.831 306.911C700.559 277.679 665.413 247.089 619.386 249.68C573.359 252.271 575.264 151.745 566.329 115.027C557.395 78.3095 424.111 78.8335 353.628 93.2695C283.146 107.705 310.997 129.788 315.135 173.755Z" fill="#153F9A"/>
</g>
<defs>
<filter id="filter0_f_2037_2" x="0.34082" y="-376.913" width="1531.31" height="973.289" filterUnits="userSpaceOnUse" color-interpolation-filters="sRGB">
<feFlood flood-opacity="0" result="BackgroundImageFix"/>
<feBlend mode="normal" in="SourceGraphic" in2="BackgroundImageFix" result="shape"/>
<feGaussianBlur stdDeviation="100" result="effect1_foregroundBlur_2037_2"/>
</filter>
<filter id="filter1_f_2037_2" x="0.34082" y="-376.913" width="1531.31" height="973.289" filterUnits="userSpaceOnUse" color-interpolation-filters="sRGB">
<feFlood flood-opacity="0" result="BackgroundImageFix"/>
<feBlend mode="normal" in="SourceGraphic" in2="BackgroundImageFix" result="shape"/>
<feGaussianBlur stdDeviation="100" result="effect1_foregroundBlur_2037_2"/>
</filter>
<filter id="filter2_f_2037_2" x="0.34082" y="-376.914" width="1531.31" height="973.289" filterUnits="userSpaceOnUse" color-interpolation-filters="sRGB">
<feFlood flood-opacity="0" result="BackgroundImageFix"/>
<feBlend mode="normal" in="SourceGraphic" in2="BackgroundImageFix" result="shape"/>
<feGaussianBlur stdDeviation="100" result="effect1_foregroundBlur_2037_2"/>
</filter>
<filter id="filter3_f_2037_2" x="0.34082" y="-376.914" width="1531.31" height="973.289" filterUnits="userSpaceOnUse" color-interpolation-filters="sRGB">
<feFlood flood-opacity="0" result="BackgroundImageFix"/>
<feBlend mode="normal" in="SourceGraphic" in2="BackgroundImageFix" result="shape"/>
<feGaussianBlur stdDeviation="100" result="effect1_foregroundBlur_2037_2"/>
</filter>
</defs>
</svg>
