<svg width="375" height="575" viewBox="0 0 375 575" fill="none" xmlns="http://www.w3.org/2000/svg">
<g clip-path="url(#clip0_48_3494)">
<g filter="url(#filter0_f_48_3494)">
<path d="M357.064 417.598C275.656 428.435 276.409 495.645 286.962 527.896C302.792 559.502 343.948 627.358 381.939 645.935C429.428 669.155 549.279 642.064 562.847 603.363C576.415 564.662 669.131 556.922 746.017 541.442C822.903 525.961 748.278 382.767 700.79 338.261C653.301 293.755 569.631 338.261 513.098 369.222C456.564 400.183 458.825 404.053 357.064 417.598Z" fill="#205EE5"/>
<path d="M85.9937 321.948C160.618 333.559 153.834 428.376 153.834 441.922C150.065 450.952 135.291 469.012 106.346 469.012C70.1642 469.012 22.6758 467.077 -13.5058 469.012C-49.6874 470.947 -33.8579 534.804 -101.698 556.09C-169.539 577.375 -255.47 554.155 -314.265 556.09C-373.061 558.025 -348.186 490.298 -339.14 441.922C-330.095 393.545 -219.289 401.286 -160.494 414.831C-101.698 428.376 -90.3917 416.766 -65.5168 368.39C-40.642 320.013 11.3691 310.338 85.9937 321.948Z" fill="#153F9A"/>
<path d="M664.369 310.573C661.059 276.074 620.315 264.582 600.357 263.149C583.845 260.368 576.717 232.51 576.363 186.514C576.009 140.519 484.813 133.385 429.851 99.9115C374.89 66.4383 284.401 151.295 281.673 179.968C278.944 208.64 314.091 238.644 360.117 236.103C406.144 233.561 404.239 332.162 413.174 368.176C422.109 404.191 555.392 403.677 625.875 389.518C696.358 375.358 668.506 353.698 664.369 310.573Z" fill="#153F9A"/>
</g>
</g>
<defs>
<filter id="filter0_f_48_3494" x="-552.143" y="-107.783" width="1531.31" height="962.308" filterUnits="userSpaceOnUse" color-interpolation-filters="sRGB">
<feFlood flood-opacity="0" result="BackgroundImageFix"/>
<feBlend mode="normal" in="SourceGraphic" in2="BackgroundImageFix" result="shape"/>
<feGaussianBlur stdDeviation="100" result="effect1_foregroundBlur_48_3494"/>
</filter>
<clipPath id="clip0_48_3494">
<rect width="1131" height="842" fill="white" transform="translate(-352 -135)"/>
</clipPath>
</defs>
</svg>
