<svg width="1313" height="441" viewBox="0 0 1313 441" fill="none" xmlns="http://www.w3.org/2000/svg">
<g opacity="0.45" filter="url(#filter0_f_89_1412)">
<path d="M1062.2 238.63C893.764 251.307 894.049 329.442 915.571 367.778C915.898 368.361 916.264 368.869 916.709 369.368C950.17 406.926 1035.37 486.019 1114.05 507.774C1213.05 535.145 1462.9 503.212 1491.18 457.595C1519.47 411.977 1712.75 402.854 1873.03 384.606C2033.31 366.359 1877.74 197.574 1778.74 145.114C1679.75 92.6538 1505.33 145.114 1387.47 181.608C1269.62 218.102 1274.33 222.664 1062.2 238.63Z" fill="#205EE5"/>
<path d="M638.648 263.5L638.626 264.068C638.544 266.204 637.891 268.247 636.431 269.808C625.994 280.959 595.447 299.233 539.541 299.233C464.116 299.233 365.119 296.952 289.694 299.233C214.268 301.514 247.267 376.783 105.843 401.873C-35.5799 426.962 -214.716 399.592 -337.283 401.873C-459.85 404.153 -407.994 324.323 -389.138 267.301C-370.282 210.279 -139.29 219.402 -16.7234 235.368C105.843 251.334 129.414 237.649 181.269 180.627C233.124 123.605 341.549 112.201 497.114 125.886C643.473 138.761 639.617 238.449 638.648 263.5Z" fill="#153F9A"/>
<path d="M1702.82 112.478C1695.92 71.8127 1610.98 58.2674 1569.38 56.578C1534.96 53.2997 1520.1 20.4631 1519.36 -33.7527C1518.62 -87.9686 1328.51 -96.3775 1213.93 -135.833C1099.36 -175.288 910.724 -75.2657 905.036 -41.469C899.348 -7.67232 972.615 27.6937 1068.56 24.6982C1164.51 21.7027 1160.54 137.925 1179.17 180.376C1197.79 222.827 1475.64 222.221 1622.57 205.531C1769.51 188.841 1711.45 163.31 1702.82 112.478Z" fill="#153F9A"/>
</g>
<defs>
<filter id="filter0_f_89_1412" x="-616.244" y="-344.902" width="2758.37" height="1062.8" filterUnits="userSpaceOnUse" color-interpolation-filters="sRGB">
<feFlood flood-opacity="0" result="BackgroundImageFix"/>
<feBlend mode="normal" in="SourceGraphic" in2="BackgroundImageFix" result="shape"/>
<feGaussianBlur stdDeviation="100" result="effect1_foregroundBlur_89_1412"/>
</filter>
</defs>
</svg>
