<svg width="340" height="319" viewBox="0 0 340 319" fill="none" xmlns="http://www.w3.org/2000/svg">
<g opacity="0.45" filter="url(#filter0_f_89_1715)">
<path d="M172.506 173.147C129.079 182.372 129.482 239.583 135.111 267.036C143.555 293.94 165.509 351.701 185.775 367.514C211.107 387.28 275.04 364.22 282.278 331.276C289.516 298.333 338.974 291.744 379.988 278.567C421.001 265.389 381.194 143.498 355.862 105.613C330.53 67.7281 285.897 105.613 255.74 131.968C225.583 158.323 226.789 161.617 172.506 173.147Z" fill="#205EE5"/>
<path d="M27.907 91.7272C66.4655 101.3 64.2801 177.327 64.1049 192.567C64.0951 193.421 63.9961 194.268 63.7427 195.083C61.263 203.065 53.4179 216.913 38.7636 216.913C19.463 216.913 -5.86908 215.265 -25.1697 216.913C-44.4704 218.56 -36.0263 272.917 -72.215 291.036C-108.404 309.154 -154.243 289.388 -185.606 291.036C-216.97 292.683 -203.701 235.032 -198.875 193.852C-194.05 152.673 -134.942 159.261 -103.579 170.792C-72.215 182.322 -66.1835 172.439 -52.9144 131.259C-39.6452 90.08 -11.9005 81.8441 27.907 91.7272Z" fill="#153F9A"/>
<path d="M336.434 82.0445C334.668 52.6773 312.934 42.8954 302.287 41.6753C293.479 39.3078 289.677 15.5943 289.488 -23.5586C289.299 -62.7115 240.652 -68.7841 211.333 -97.2775C182.015 -125.771 133.745 -53.5379 132.289 -29.131C130.834 -4.72415 149.582 20.816 174.135 18.6528C198.687 16.4895 197.671 100.421 202.437 131.078C207.203 161.735 278.301 161.297 315.9 149.244C353.498 137.191 338.641 118.754 336.434 82.0445Z" fill="#153F9A"/>
</g>
<defs>
<filter id="filter0_f_89_1715" x="-405.812" y="-303.827" width="1003.48" height="878.654" filterUnits="userSpaceOnUse" color-interpolation-filters="sRGB">
<feFlood flood-opacity="0" result="BackgroundImageFix"/>
<feBlend mode="normal" in="SourceGraphic" in2="BackgroundImageFix" result="shape"/>
<feGaussianBlur stdDeviation="100" result="effect1_foregroundBlur_89_1715"/>
</filter>
</defs>
</svg>
